<?xml version="1.0" encoding="utf-8"?>
<!-- Generator: Adobe Illustrator 16.0.0, SVG Export Plug-In . SVG Version: 6.00 Build 0)  -->
<!DOCTYPE svg PUBLIC "-//W3C//DTD SVG 1.1//EN" "http://www.w3.org/Graphics/SVG/1.1/DTD/svg11.dtd">
<svg version="1.1" id="Capa_1" xmlns="http://www.w3.org/2000/svg" xmlns:xlink="http://www.w3.org/1999/xlink" x="0px" y="0px"
	 width="81.332px" height="97.733px" viewBox="0 0 81.332 97.733" enable-background="new 0 0 81.332 97.733" xml:space="preserve">
<g>
	<g>
		<path fill="#3EA3BA" d="M3.866,100.034v-3.595c0-11.318,9.176-20.493,20.493-20.493h29.481c11.317,0,20.493,9.175,20.493,20.493
			v3.595"/>
		<path fill="#272D33" d="M76.334,100.034h-4v-3.595c0-10.197-8.296-18.493-18.493-18.493H24.359
			c-10.197,0-18.493,8.296-18.493,18.493v3.595h-4v-3.595c0-12.402,10.091-22.493,22.493-22.493h29.481
			c12.402,0,22.493,10.091,22.493,22.493V100.034z"/>
	</g>
	<g>
		<path fill="#FFFFFF" d="M39.1,90.417c-5.063,0-9.168-4.104-9.168-9.168V32.174c0-5.063,4.105-9.168,9.168-9.168l0,0
			c5.063,0,9.168,4.105,9.168,9.168v49.075C48.268,86.313,44.163,90.417,39.1,90.417L39.1,90.417z"/>
		<path fill="#272D33" d="M39.1,92.417c-6.158,0-11.168-5.01-11.168-11.168V32.174c0-6.158,5.01-11.168,11.168-11.168
			c6.158,0,11.168,5.01,11.168,11.168v49.075C50.268,87.407,45.258,92.417,39.1,92.417z M39.1,25.006
			c-3.952,0-7.168,3.215-7.168,7.168v49.075c0,3.952,3.216,7.168,7.168,7.168s7.168-3.216,7.168-7.168V32.174
			C46.268,28.221,43.052,25.006,39.1,25.006z"/>
	</g>
	<g>
		<path fill="#B6BDBE" d="M77.529,34.421c0-6.159-4.028-11.388-9.648-13.355c0.19-0.679,0.301-1.392,0.301-2.128
			c0-4.455-3.702-8.066-8.27-8.066c-0.071,0-0.139,0.009-0.21,0.012c-5.234-5.266-12.479-8.529-20.473-8.529
			c-14.097,0-25.859,10.152-28.378,23.527c-4.207,2.49-7.025,6.986-7.025,12.135c0,4.558,2.219,8.592,5.641,11.189
			C8.85,50.529,8.5,51.967,8.5,53.476c0,6.453,6.197,11.685,13.842,11.685s13.842-5.231,13.842-11.685
			c0-0.585-0.068-1.157-0.167-1.72h20.341c0.402,4.291,4.012,7.652,8.408,7.652c4.666,0,8.449-3.783,8.449-8.449
			c0-1.904-0.638-3.654-1.701-5.068C75.154,43.313,77.529,39.145,77.529,34.421z"/>
		<path fill="#272D33" d="M22.342,67.16C13.606,67.16,6.5,61.021,6.5,53.476c0-1.239,0.194-2.465,0.58-3.658
			c-3.357-3.062-5.254-7.285-5.254-11.802c0-5.408,2.688-10.344,7.236-13.371C12.141,10.517,24.689,0.354,39.229,0.354
			c7.992,0,15.521,3.025,21.297,8.535c5.377,0.313,9.655,4.7,9.655,10.049c0,0.296-0.015,0.595-0.043,0.894
			c5.681,2.674,9.391,8.342,9.391,14.59c0,4.542-1.986,8.882-5.39,11.931c0.707,1.426,1.075,2.99,1.075,4.607
			c0,5.762-4.688,10.449-10.449,10.449c-4.796,0-8.848-3.184-10.07-7.652H38.18C38.007,61.174,30.969,67.16,22.342,67.16z
			 M39.229,4.354c-12.915,0-24.023,9.209-26.413,21.898l-0.167,0.889l-0.779,0.462c-3.785,2.24-6.044,6.134-6.044,10.413
			c0,3.758,1.768,7.256,4.85,9.596l1.285,0.976l-0.681,1.462c-0.518,1.111-0.78,2.264-0.78,3.427c0,5.341,5.312,9.685,11.842,9.685
			c6.529,0,11.842-4.344,11.842-9.685c0-0.406-0.043-0.843-0.137-1.374l-0.411-2.346h24.543l0.17,1.813
			c0.313,3.328,3.07,5.839,6.417,5.839c3.556,0,6.449-2.894,6.449-6.449c0-1.399-0.449-2.736-1.3-3.865l-1.236-1.645l1.68-1.189
			c3.285-2.328,5.171-5.914,5.171-9.839c0-5.118-3.339-9.728-8.31-11.468l-1.771-0.62l0.506-1.807
			c0.15-0.536,0.227-1.071,0.227-1.589c0-3.346-2.813-6.066-6.27-6.066l-1.013,0.04l-0.615-0.618
			C53.193,7.173,46.427,4.354,39.229,4.354z"/>
	</g>
	<path fill="#FFFFFF" d="M64.88,33.448v14.083c0,12.527-11.483,22.685-25.65,22.685l0,0c-14.164,0-25.648-10.157-25.648-22.685
		V32.244l11.187-6.166l4.314-7.154l2.293-4.412l2.696,4.412l11.055,9.539l11.056,3.1l8.698,0.807"/>
	<g>
		<path fill="#FFFFFF" d="M63.065,33.637c0.838-0.307,1.743-0.475,2.688-0.475c4.319,0,7.82,3.502,7.82,7.82
			s-3.501,7.819-7.82,7.819"/>
		<path fill="#272D33" d="M65.754,50.802v-4c3.209,0,5.82-2.61,5.82-5.819s-2.611-5.82-5.82-5.82c-0.688,0-1.362,0.119-2.001,0.352
			l-1.375-3.756c1.081-0.395,2.217-0.596,3.376-0.596c5.415,0,9.82,4.405,9.82,9.82C75.574,46.396,71.169,50.802,65.754,50.802z"/>
	</g>
	<g>
		<path fill="#FFFFFF" d="M15.061,48.802c-4.318,0-7.819-3.501-7.819-7.819s3.501-7.82,7.819-7.82"/>
		<path fill="#272D33" d="M15.061,50.802c-5.414,0-9.819-4.405-9.819-9.819c0-5.415,4.405-9.82,9.819-9.82v4
			c-3.208,0-5.819,2.611-5.819,5.82s2.611,5.819,5.819,5.819V50.802z"/>
	</g>
	<g>
		<path fill="#272D33" d="M39.229,72.216c-15.246,0-27.648-12.403-27.648-27.65V32.675h4v11.891c0,13.041,10.608,23.65,23.648,23.65
			c13.041,0,23.65-10.609,23.65-23.65V32.675h4v11.891C66.88,59.813,54.476,72.216,39.229,72.216z"/>
	</g>
	<g>
		<path fill="#272D33" d="M39.282,62.15c-2.543,0-5.09-0.484-7.509-1.461l1.497-3.709c4.417,1.783,9.373,1.518,13.595-0.729
			l1.879,3.531C45.785,61.356,42.538,62.15,39.282,62.15z"/>
	</g>
	<g>
		<path fill="#272D33" d="M13.218,35.592l-1.303-3.781c1.82-0.627,2.994-1.18,4.649-2.041c7.14-3.712,12.069-10.779,13.188-18.905
			l3.797-0.566l3.619,7.83c4.893,10.587,17.57,13.751,27.8,13.172l0.225,3.994c-11.543,0.642-25.922-3.081-31.656-15.488
			l-1.215-2.628c-2.43,6.924-7.371,12.74-13.911,16.141C16.621,34.249,15.263,34.887,13.218,35.592z"/>
	</g>
	<g>
		<rect x="26.981" y="37.656" fill="#272D33" width="4.674" height="4"/>
	</g>
	<g>
		<rect x="45.722" y="37.656" fill="#272D33" width="4.675" height="4"/>
	</g>
	<g>
		<polygon fill="#272D33" points="42.653,51.936 35.62,51.936 35.62,36.993 39.62,36.993 39.62,47.936 42.653,47.936 		"/>
	</g>
</g>
</svg>
