<?xml version="1.0" encoding="utf-8"?>
<!-- Generator: Adobe Illustrator 16.0.0, SVG Export Plug-In . SVG Version: 6.00 Build 0)  -->
<!DOCTYPE svg PUBLIC "-//W3C//DTD SVG 1.1//EN" "http://www.w3.org/Graphics/SVG/1.1/DTD/svg11.dtd">
<svg version="1.1" id="Capa_1" xmlns="http://www.w3.org/2000/svg" xmlns:xlink="http://www.w3.org/1999/xlink" x="0px" y="0px"
	 width="81.332px" height="99.334px" viewBox="0 0 81.332 99.334" enable-background="new 0 0 81.332 99.334" xml:space="preserve">
<g>
	<g>
		<path fill="#3EA3BA" d="M2,99.334v-5.526c0-5.918,5.42-10.714,12.105-10.714h53.123c6.686,0,12.104,4.796,12.104,10.714v5.526"/>
		<path fill="#272D33" d="M81.332,99.334h-4v-5.526c0-4.805-4.532-8.714-10.104-8.714H14.105C8.533,85.094,4,89.003,4,93.808v5.526
			H0v-5.526c0-7.011,6.327-12.714,14.105-12.714h53.123c7.776,0,14.104,5.703,14.104,12.714V99.334z"/>
	</g>
	<g>
		<polygon fill="#FFFFFF" points="50.836,87.539 40.666,93.411 30.496,87.539 30.496,65.334 40.666,65.334 50.836,65.334 		"/>
		<path fill="#272D33" d="M40.666,95.72l-12.17-7.025v-25.36h24.34v25.36L40.666,95.72z M32.496,86.384l8.17,4.717l8.17-4.717
			v-19.05h-16.34V86.384z"/>
	</g>
	<g>
		<path fill="#FFFFFF" d="M64.166,64.167c0,6.627-5.372,12-12,12h-23c-6.627,0-12-5.373-12-12v-35.5c0-6.627,5.373-12,12-12h23
			c6.628,0,12,5.373,12,12V64.167z"/>
		<path fill="#272D33" d="M52.166,78.167h-23c-7.72,0-14-6.28-14-14v-35.5c0-7.72,6.28-14,14-14h23c7.72,0,14,6.28,14,14v35.5
			C66.166,71.887,59.886,78.167,52.166,78.167z M29.166,18.667c-5.514,0-10,4.486-10,10v35.5c0,5.514,4.486,10,10,10h23
			c5.514,0,10-4.486,10-10v-35.5c0-5.514-4.486-10-10-10H29.166z"/>
	</g>
	<g>
		<path fill="#B6BDBE" d="M58.833,2H22.5L11.166,14.667v44.5h6v-30.5c0-3.996,1.961-7.525,4.965-9.707l18.535,4.595l18.536-4.595
			c3.003,2.182,4.964,5.711,4.964,9.707v30.5h6v-44.5L58.833,2z"/>
		<path fill="#272D33" d="M72.166,61.167h-10v-32.5c0-2.884-1.271-5.637-3.438-7.529l-18.063,4.478l-18.063-4.478
			c-2.167,1.893-3.438,4.646-3.438,7.529v32.5h-10V13.903L21.605,0h38.122l12.438,13.903V61.167z M66.166,57.167h2V15.431L57.938,4
			H23.394L13.166,15.431v41.736h2v-28.5c0-4.459,2.164-8.693,5.79-11.325l0.753-0.546l18.958,4.698l18.958-4.698l0.753,0.547
			c3.625,2.631,5.789,6.865,5.789,11.324V57.167z"/>
	</g>
	<g>
		<path fill="#272D33" d="M40.083,54.845h-4V41.388c0-1.316-1.071-2.387-2.388-2.387h-5.558c-1.317,0-2.388,1.07-2.388,2.387h-4
			c0-3.521,2.865-6.387,6.388-6.387h5.558c3.522,0,6.388,2.865,6.388,6.387V54.845z"/>
	</g>
	<g>
		<path fill="#272D33" d="M49.102,41.388h-4c0-3.521,2.865-6.387,6.388-6.387h5.558v4h-5.558
			C50.173,39.001,49.102,40.071,49.102,41.388z"/>
	</g>
	<g>
		<path fill="#272D33" d="M40.25,70.334h-1c-5.238,0-9.5-4.262-9.5-9.5c0-0.356,0.022-0.707,0.06-1.054l0.197-1.779h19.488
			l0.194,1.783c0.037,0.346,0.061,0.694,0.061,1.05C49.75,66.072,45.488,70.334,40.25,70.334z M33.874,62.001
			c0.537,2.474,2.743,4.333,5.376,4.333h1c2.632,0,4.839-1.859,5.375-4.333H33.874z"/>
	</g>
	<g>
		<rect x="27.435" y="44.485" fill="#272D33" width="4.877" height="4"/>
	</g>
	<g>
		<rect x="45.102" y="44.485" fill="#272D33" width="4.877" height="4"/>
	</g>
	<g>
		<path fill="#FFFFFF" d="M17.083,35.334h-1.667c-2.209,0-4,1.791-4,4v9.333c0,2.209,1.791,4,4,4h1.667V35.334z"/>
		<path fill="#272D33" d="M19.083,54.667h-3.667c-3.309,0-6-2.691-6-6v-9.333c0-3.309,2.691-6,6-6h3.667V54.667z M15.083,37.362
			c-0.945,0.158-1.667,0.982-1.667,1.972v9.333c0,0.989,0.722,1.813,1.667,1.973V37.362z"/>
	</g>
	<g>
		<path fill="#FFFFFF" d="M64.415,52.667h1.667c2.209,0,4-1.791,4-4v-9.333c0-2.209-1.791-4-4-4h-1.667V52.667z"/>
		<path fill="#272D33" d="M66.082,54.667h-3.667V33.334h3.667c3.309,0,6,2.691,6,6v9.333C72.082,51.976,69.391,54.667,66.082,54.667
			z M66.415,37.362V50.64c0.945-0.159,1.667-0.983,1.667-1.973v-9.333C68.082,38.345,67.36,37.521,66.415,37.362z"/>
	</g>
</g>
</svg>
