<?xml version="1.0" encoding="utf-8"?>
<!-- Generator: Adobe Illustrator 16.0.0, SVG Export Plug-In . SVG Version: 6.00 Build 0)  -->
<!DOCTYPE svg PUBLIC "-//W3C//DTD SVG 1.1//EN" "http://www.w3.org/Graphics/SVG/1.1/DTD/svg11.dtd">
<svg version="1.1" id="Capa_1" xmlns="http://www.w3.org/2000/svg" xmlns:xlink="http://www.w3.org/1999/xlink" x="0px" y="0px"
	 width="81.332px" height="97.733px" viewBox="0 0 81.332 97.733" enable-background="new 0 0 81.332 97.733" xml:space="preserve">
<g>
	<g>
		<path fill="#FFFFFF" d="M2,96.531V83.141c0-5.918,5.419-10.714,12.105-10.714h53.123c6.686,0,12.104,4.796,12.104,10.714v13.391"
			/>
		<path fill="#272D33" d="M81.332,96.531h-4V83.141c0-4.805-4.532-8.714-10.104-8.714H14.105C8.533,74.427,4,78.336,4,83.141v13.391
			H0V83.141c0-7.011,6.327-12.714,14.105-12.714h53.123c7.776,0,14.104,5.703,14.104,12.714V96.531z"/>
	</g>
	<g>
		<polygon fill="#FFFFFF" points="50.835,72.538 40.666,78.41 30.496,72.538 30.496,50.333 40.666,50.333 50.836,50.333 		"/>
		<path fill="#272D33" d="M40.666,80.719l-12.17-7.025v-25.36h24.341l-0.002,25.36L40.666,80.719z M32.496,71.383l8.17,4.717
			l8.169-4.717l0.001-19.05h-16.34V71.383z"/>
	</g>
	<g>
		<path fill="#FFFFFF" d="M64.601,43.655c0,13.134-10.646,23.781-23.781,23.781l0,0c-13.135,0-23.781-10.647-23.781-23.781V23
			c0-13.133,10.646-12.148,23.781-12.148l0,0c13.135,0,23.781-0.984,23.781,12.148V43.655z"/>
		<path fill="#272D33" d="M40.819,69.437c-14.216,0-25.781-11.565-25.781-25.781V23c0-14.165,11.526-14.165,20.787-14.165
			c0.796,0,1.606,0.004,2.43,0.008c1.684,0.009,3.443,0.009,5.129,0.001c0.822-0.005,1.634-0.009,2.43-0.009
			c9.261,0,20.787,0,20.787,14.165v20.655C66.601,57.871,55.035,69.437,40.819,69.437z M35.825,12.835
			c-11.411,0-16.787,1.003-16.787,10.165v20.655c0,12.011,9.771,21.781,21.781,21.781c12.01,0,21.781-9.771,21.781-21.781V23
			c0-9.162-5.377-10.165-16.787-10.165c-0.789,0-1.594,0.004-2.41,0.008c-1.698,0.009-3.471,0.009-5.168,0
			C37.418,12.839,36.614,12.835,35.825,12.835z"/>
	</g>
	<g>
		<g>
			<rect x="28.652" y="35" fill="#272D33" width="4.334" height="4"/>
		</g>
		<g>
			<rect x="48.652" y="35" fill="#272D33" width="4.334" height="4"/>
		</g>
	</g>
	<g>
		<path fill="#3EA3BA" d="M51.794,53.833c-0.258-3.632-3.277-6.5-6.975-6.5h-8c-3.697,0-6.718,2.868-6.975,6.5H51.794z"/>
		<path fill="#272D33" d="M53.94,55.833H27.698l0.152-2.142c0.332-4.688,4.272-8.358,8.97-8.358h8c4.697,0,8.637,3.671,8.969,8.358
			L53.94,55.833z M32.498,51.833H49.14c-0.869-1.497-2.491-2.5-4.32-2.5h-8C34.99,49.333,33.368,50.336,32.498,51.833z"/>
	</g>
	<g>
		<path fill="#3EA3BA" d="M61.837,7.55V6c0-2.209-1.751-4-3.91-4H23.711c-2.159,0-3.91,1.791-3.91,4v1.549
			c-4.476,0.146-8.064,3.896-8.064,8.512l2,28l3.865,4c0,0,1.77-22.524,4.193-29.895l19.024,3.508l19.023-3.508
			c2.424,7.369,4.193,29.895,4.193,29.895l3.866-4l2-28C69.902,11.445,66.313,7.696,61.837,7.55z"/>
		<path fill="#272D33" d="M62.39,52.643l-0.348-4.425c-0.016-0.208-1.542-19.406-3.625-27.755l-17.598,3.245l-17.599-3.245
			c-2.083,8.35-3.609,27.547-3.625,27.754l-0.348,4.426l-7.455-7.715L9.736,16.061c0-5.035,3.416-9.221,8.068-10.266
			C17.911,2.581,20.52,0,23.711,0h34.216c3.191,0,5.801,2.582,5.907,5.796c4.652,1.045,8.068,5.229,8.068,10.265l-0.005,0.143
			l-2.053,28.725L62.39,52.643z M61.197,15.883l0.546,1.658c1.825,5.551,3.254,18.971,3.905,25.975l0.311-0.322l1.942-27.199
			c-0.033-3.508-2.714-6.334-6.13-6.445l-1.935-0.063V6c0-1.104-0.856-2-1.91-2H23.711c-1.053,0-1.91,0.896-1.91,2v3.484
			l-1.934,0.063c-3.416,0.112-6.097,2.938-6.13,6.446l1.943,27.199l0.311,0.321c0.651-7.003,2.08-20.423,3.906-25.974l0.545-1.658
			l20.378,3.758L61.197,15.883z"/>
	</g>
	<g>
		<g>
			<path fill="#FFFFFF" d="M18.639,34.088c-2.371-0.029-6.38,1.302-6.602,3.431l-0.786,7.548c-0.222,2.129,3.427,4.258,5.753,4.719
				L18.639,34.088z"/>
			<path fill="#272D33" d="M18.766,52.172l-2.15-0.426c-2.671-0.527-7.741-3.17-7.354-6.887l0.786-7.548
				c0.384-3.692,5.735-5.225,8.515-5.225l2.292,0.027L18.766,52.172z M16.383,36.439c-1.223,0.363-2.215,0.932-2.363,1.321
				l-0.779,7.513c0.065,0.388,0.931,1.145,2.041,1.748L16.383,36.439z"/>
		</g>
		<g>
			<path fill="#FFFFFF" d="M62.688,34.613c2.371,0.029,6.418,1.459,6.698,3.594l0.995,7.57c0.281,2.135-3.31,4.176-5.624,4.578
				L62.688,34.613z"/>
			<path fill="#272D33" d="M63.046,52.684l-2.643-20.099l2.309,0.028c2.779,0.035,8.17,1.634,8.657,5.333l0.995,7.57
				c0.498,3.784-4.57,6.341-7.265,6.81L63.046,52.684z M65.024,37.051l1.396,10.621c1.072-0.558,1.912-1.277,1.977-1.672
				l-0.994-7.532C67.27,38.074,66.261,37.463,65.024,37.051z"/>
		</g>
	</g>
	<g>
		<polygon fill="#B6BDBE" points="37.872,88.455 35.06,83.583 37.872,78.711 43.497,78.711 46.31,83.583 43.497,88.455 		"/>
		<path fill="#272D33" d="M44.651,90.455h-7.934l-3.967-6.872l3.967-6.872h7.934l3.968,6.872L44.651,90.455z M39.027,86.455h3.315
			l1.658-2.872l-1.658-2.872h-3.315l-1.658,2.872L39.027,86.455z"/>
	</g>
	<g>
		<polyline fill="#B6BDBE" points="36.06,97.333 37.872,88.461 43.497,88.461 45.31,97.333 		"/>
		<polygon fill="#272D33" points="43.351,97.733 41.864,90.461 39.505,90.461 38.02,97.733 34.101,96.933 36.24,86.461 
			45.13,86.461 47.27,96.933 		"/>
	</g>
	<g>
		<g>
			<polygon fill="#FFFFFF" points="29.404,86.143 40.654,78.707 30.292,72.724 			"/>
			<path fill="#272D33" d="M27.143,90.035l1.366-20.65l15.945,9.207L27.143,90.035z M32.076,76.063l-0.409,6.188l5.187-3.428
				L32.076,76.063z"/>
		</g>
		<g>
			<polygon fill="#FFFFFF" points="51.965,86.144 40.715,78.707 51.076,72.725 			"/>
			<path fill="#272D33" d="M54.228,90.036L36.915,78.592l15.945-9.207L54.228,90.036z M44.516,78.822l5.188,3.429l-0.41-6.188
				L44.516,78.822z"/>
		</g>
	</g>
</g>
</svg>
