<?xml version="1.0" encoding="utf-8"?>
<!-- Generator: Adobe Illustrator 16.0.0, SVG Export Plug-In . SVG Version: 6.00 Build 0)  -->
<!DOCTYPE svg PUBLIC "-//W3C//DTD SVG 1.1//EN" "http://www.w3.org/Graphics/SVG/1.1/DTD/svg11.dtd">
<svg version="1.1" id="Capa_1" xmlns="http://www.w3.org/2000/svg" xmlns:xlink="http://www.w3.org/1999/xlink" x="0px" y="0px"
	 width="81.332px" height="97.733px" viewBox="0 0 81.332 97.733" enable-background="new 0 0 81.332 97.733" xml:space="preserve">
<g>
	<g>
		<path fill="#3EA3BA" d="M2.146,100.732v-5.526c0-5.917,5.42-10.714,12.105-10.714h53.124c6.686,0,12.103,4.797,12.103,10.714
			v5.526"/>
		<path fill="#272D33" d="M81.479,100.732h-4v-5.526c0-4.805-4.532-8.714-10.103-8.714H14.252c-5.572,0-10.105,3.909-10.105,8.714
			v5.526h-4v-5.526c0-7.011,6.328-12.714,14.105-12.714h53.124c7.776,0,14.103,5.703,14.103,12.714V100.732z"/>
	</g>
	<g>
		<path fill="#FFFFFF" d="M16.146,100.732v-3.711c0-3.975,3.458-7.195,7.723-7.195h33.889c4.266,0,7.721,3.221,7.721,7.195v3.711"/>
		<path fill="#272D33" d="M67.479,100.732h-4v-3.711c0-2.865-2.565-5.195-5.721-5.195H23.869c-3.155,0-5.723,2.33-5.723,5.195v3.711
			h-4v-3.711c0-5.07,4.362-9.195,9.723-9.195h33.889c5.36,0,9.721,4.125,9.721,9.195V100.732z"/>
	</g>
	<g>
		<path fill="#3EA3BA" d="M40.768,97.264c9.165,0,15.565-4.211,15.565-10.242v-2.529H25.202v2.529
			C25.202,93.053,31.604,97.264,40.768,97.264z"/>
		<path fill="#272D33" d="M40.768,99.264c-10.342,0-17.565-5.033-17.565-12.242v-4.529h35.131v4.529
			C58.333,94.23,51.11,99.264,40.768,99.264z M27.202,86.492v0.529c0,4.854,5.579,8.243,13.565,8.243
			c7.987,0,13.565-3.39,13.565-8.243v-0.529H27.202z"/>
	</g>
	<g>
		<path fill="#FFFFFF" d="M40.768,91.265c-5.282,0-9.565-1.899-9.565-4.243V64.309c0-2.344,4.283-4.244,9.565-4.244l0,0
			c5.282,0,9.565,1.9,9.565,4.244v22.713C50.333,89.365,46.05,91.265,40.768,91.265L40.768,91.265z"/>
		<path fill="#272D33" d="M40.768,93.265c-5.747,0-11.565-2.145-11.565-6.243V64.309c0-4.1,5.818-6.244,11.565-6.244
			s11.565,2.145,11.565,6.244v22.713C52.333,91.12,46.515,93.265,40.768,93.265z M40.768,62.064c-4.942,0-7.446,1.713-7.566,2.256
			l0.001,22.701c0.119,0.531,2.623,2.243,7.565,2.243c4.943,0,7.447-1.712,7.567-2.256l-0.002-22.7
			C48.214,63.777,45.71,62.064,40.768,62.064z"/>
	</g>
	<g>
		<path fill="#FFFFFF" d="M64.313,55.566c0,6.627-7.372,22-14,22h-19c-6.627,0-14-15.373-14-22v-25.5c0-6.628,5.373-12,12-12h23
			c6.628,0,12,5.372,12,12V55.566z"/>
		<path fill="#272D33" d="M50.313,79.566h-19c-8.393,0-16-17.278-16-24v-25.5c0-7.721,6.281-14,14-14h23c7.72,0,14,6.279,14,14v25.5
			C66.313,62.288,58.706,79.566,50.313,79.566z M29.313,20.066c-5.514,0-10,4.485-10,10v25.5c0,2.932,1.788,8.185,4.251,12.492
			c2.648,4.631,5.618,7.508,7.749,7.508h19c2.132,0,5.102-2.877,7.749-7.508c2.463-4.307,4.251-9.561,4.251-12.492v-25.5
			c0-5.515-4.485-10-10-10H29.313z"/>
	</g>
	<g>
		<path fill="#272D33" d="M40.229,56.243h-4V42.787c0-1.316-1.071-2.388-2.388-2.388v-4c3.522,0,6.388,2.866,6.388,6.388V56.243z"/>
	</g>
	<g>
		<path fill="#272D33" d="M40.273,70.704h-0.753c-4.217,0-7.648-3.431-7.648-7.647c0-0.287,0.018-0.568,0.048-0.846l0.194-1.783
			h15.564l0.194,1.783c0.03,0.277,0.048,0.559,0.048,0.846C47.921,67.273,44.49,70.704,40.273,70.704z M36.14,64.428
			c0.543,1.334,1.854,2.276,3.38,2.276h0.753c1.526,0,2.837-0.942,3.38-2.276H36.14z"/>
	</g>
	<g>
		<path fill="#FFFFFF" d="M17.229,36.732h-1.667c-2.209,0-4,1.791-4,4v9.334c0,2.209,1.791,4,4,4h1.667V36.732z"/>
		<path fill="#272D33" d="M19.229,56.066h-3.667c-3.308,0-6-2.691-6-6v-9.334c0-3.309,2.692-6,6-6h3.667V56.066z M15.229,38.761
			c-0.944,0.159-1.667,0.983-1.667,1.972v9.334c0,0.988,0.723,1.813,1.667,1.972V38.761z"/>
	</g>
	<g>
		<path fill="#FFFFFF" d="M64.563,54.066h1.667c2.209,0,4-1.791,4-4v-9.334c0-2.209-1.791-4-4-4h-1.667V54.066z"/>
		<path fill="#272D33" d="M66.229,56.066h-3.667V34.732h3.667c3.309,0,6,2.691,6,6v9.334C72.229,53.375,69.538,56.066,66.229,56.066
			z M66.563,38.761v13.277c0.945-0.159,1.667-0.983,1.667-1.972v-9.334C68.229,39.744,67.508,38.92,66.563,38.761z"/>
	</g>
	<g>
		<path fill="#3EA3BA" d="M58.979,12.398h-1.595c3.099-1.361,4.988-3.135,4.988-5.082c0-4.281-11.138-6.008-22.25-4.75
			c-13.25,1.5-20.561,10.5-20.561,10.5c-3.451,0-8.25,2.798-8.25,6.25c0,0.248,0.033,0.488,0.062,0.73l-0.062,0.02v18.5h6v-8.5
			c0-3.996,1.961-7.526,4.965-9.707l2.457-0.584c3.25,3.724,9.058,6.589,15.924,7.377c5.488,0.631,10.61-0.189,14.493-2.02
			c-2.698-2.061-4.916-4.555-6.53-7.323l10.728,2.55c3.003,2.181,4.964,5.711,4.964,9.707v8.5h6v-22.5L58.979,12.398z"/>
		<path fill="#272D33" d="M72.313,40.566h-10v-10.5c0-3.057-1.427-5.965-3.834-7.857l-4.925-1.172
			c0.856,0.894,1.795,1.73,2.813,2.507l2.613,1.996l-2.975,1.402c-4.359,2.054-9.939,2.844-15.575,2.197
			c-6.57-0.755-12.579-3.398-16.359-7.151l-0.924,0.221c-2.408,1.893-3.835,4.801-3.835,7.857v10.5h-10l0.045-21.979
			c0.52-4.191,5.451-7.043,9.256-7.467c2.081-2.242,9.406-9.197,21.285-10.543c2.429-0.274,4.868-0.414,7.253-0.414
			c10.783,0,17.222,2.674,17.222,7.152c0,1.164-0.397,2.641-1.86,4.123l9.8,3.172V40.566z M66.313,36.566h2V17.521l-9.648-3.123
			h-1.279l-0.804-3.83c2.799-1.23,3.792-2.521,3.792-3.252c0-0.928-3.805-3.152-13.222-3.152c-2.234,0-4.523,0.131-6.803,0.389
			c-12.223,1.385-19.167,9.693-19.236,9.777l-0.6,0.732l-0.95,0.004c-2.582,0-6.25,2.197-6.25,4.25c0,0.136,0.021,0.268,0.037,0.399
			l0.197,1.644l-0.234,0.089v15.118h2v-6.5c0-4.46,2.165-8.693,5.79-11.326l0.324-0.234l4.021-0.955l0.794,0.91
			c3.052,3.496,8.526,6.002,14.646,6.705c3.655,0.42,7.293,0.156,10.407-0.727c-1.732-1.692-3.206-3.574-4.4-5.623l-2.352-4.032
			L60.2,18.506l0.324,0.235c3.625,2.632,5.788,6.866,5.788,11.325V36.566z"/>
	</g>
	<g>
		<path fill="#FFFFFF" d="M63.873,48.066c0,1.656-1.344,3-3,3h-14c-1.657,0-3-1.344-3-3v-5.5c0-1.657,1.343-3,3-3h14
			c1.656,0,3,1.343,3,3V48.066z"/>
		<path fill="#272D33" d="M60.873,53.066h-14c-2.757,0-5-2.244-5-5v-5.5c0-2.758,2.243-5,5-5h14c2.757,0,5,2.242,5,5v5.5
			C65.873,50.822,63.63,53.066,60.873,53.066z M46.873,41.566c-0.552,0-1,0.448-1,1v5.5c0,0.551,0.448,1,1,1h14c0.552,0,1-0.449,1-1
			v-5.5c0-0.552-0.448-1-1-1H46.873z"/>
	</g>
	<g>
		<path fill="#FFFFFF" d="M37.873,48.066c0,1.656-1.344,3-3,3h-14c-1.657,0-3-1.344-3-3v-5.5c0-1.657,1.343-3,3-3h14
			c1.656,0,3,1.343,3,3V48.066z"/>
		<path fill="#272D33" d="M34.873,53.066h-14c-2.757,0-5-2.244-5-5v-5.5c0-2.758,2.243-5,5-5h14c2.757,0,5,2.242,5,5v5.5
			C39.873,50.822,37.63,53.066,34.873,53.066z M20.873,41.566c-0.551,0-1,0.448-1,1v5.5c0,0.551,0.449,1,1,1h14c0.552,0,1-0.449,1-1
			v-5.5c0-0.552-0.448-1-1-1H20.873z"/>
	</g>
	<g>
		<rect x="26.582" y="42.885" fill="#272D33" width="4.877" height="4"/>
	</g>
	<g>
		<rect x="47.248" y="42.885" fill="#272D33" width="4.877" height="4"/>
	</g>
</g>
</svg>
