<?xml version="1.0" encoding="utf-8"?>
<!-- Generator: Adobe Illustrator 16.0.0, SVG Export Plug-In . SVG Version: 6.00 Build 0)  -->
<!DOCTYPE svg PUBLIC "-//W3C//DTD SVG 1.1//EN" "http://www.w3.org/Graphics/SVG/1.1/DTD/svg11.dtd">
<svg version="1.1" id="Capa_1" xmlns="http://www.w3.org/2000/svg" xmlns:xlink="http://www.w3.org/1999/xlink" x="0px" y="0px"
	 width="81.332px" height="97.733px" viewBox="0 0 81.332 97.733" enable-background="new 0 0 81.332 97.733" xml:space="preserve">
<g>
	<g>
		<path fill="#B6BDBE" d="M7.865,98.732v-6.917c0-6.627,5.373-12,12-12h35.5c6.628,0,12,5.373,12,12v6.917"/>
		<path fill="#272D33" d="M69.365,98.732h-4v-6.917c0-5.515-4.486-10-10-10h-35.5c-5.514,0-10,4.485-10,10v6.917h-4v-6.917
			c0-7.72,6.281-14,14-14h35.5c7.72,0,14,6.28,14,14V98.732z"/>
	</g>
	<g>
		<polygon fill="#FFFFFF" points="47.785,86.938 37.615,92.809 27.446,86.938 27.446,64.732 37.615,64.732 47.785,64.732 		"/>
		<path fill="#272D33" d="M37.615,95.119l-12.169-7.027V62.732h24.339v25.359L37.615,95.119z M29.446,85.783l8.169,4.717l8.17-4.717
			V66.732H29.446V85.783z"/>
	</g>
	<g>
		<path fill="#FFFFFF" d="M24.355,53.264c0,2.594-2.104,4.695-4.696,4.695h-0.392c-2.594,0-4.695-2.102-4.695-4.695v-4.609
			c0-2.593,2.102-4.695,4.695-4.695h0.392c2.593,0,4.696,2.103,4.696,4.695V53.264z"/>
		<path fill="#272D33" d="M19.659,59.959h-0.392c-3.692,0-6.695-3.004-6.695-6.695v-4.609c0-3.691,3.003-6.695,6.695-6.695h0.392
			c3.692,0,6.696,3.004,6.696,6.695v4.609C26.355,56.955,23.352,59.959,19.659,59.959z M19.268,45.959
			c-1.486,0-2.695,1.209-2.695,2.695v4.609c0,1.486,1.209,2.695,2.695,2.695h0.392c1.487,0,2.696-1.209,2.696-2.695v-4.609
			c0-1.486-1.209-2.695-2.696-2.695H19.268z"/>
	</g>
	<g>
		<path fill="#FFFFFF" d="M72.355,53.264c0,2.594-2.104,4.695-4.696,4.695h-0.392c-2.594,0-4.695-2.102-4.695-4.695v-4.609
			c0-2.593,2.102-4.695,4.695-4.695h0.392c2.593,0,4.696,2.103,4.696,4.695V53.264z"/>
		<path fill="#272D33" d="M67.659,59.959h-0.392c-3.692,0-6.695-3.004-6.695-6.695v-4.609c0-3.691,3.003-6.695,6.695-6.695h0.392
			c3.692,0,6.696,3.004,6.696,6.695v4.609C74.355,56.955,71.352,59.959,67.659,59.959z M67.268,45.959
			c-1.486,0-2.695,1.209-2.695,2.695v4.609c0,1.486,1.209,2.695,2.695,2.695h0.392c1.486,0,2.696-1.209,2.696-2.695v-4.609
			c0-1.486-1.21-2.695-2.696-2.695H67.268z"/>
	</g>
	<g>
		<path fill="#FFFFFF" d="M66.572,61.398c0,6.627-5.372,12-12,12h-23c-6.627,0-12-5.373-12-12v-35.5c0-6.627,5.373-12,12-12h23
			c6.628,0,12,5.373,12,12V61.398z"/>
		<path fill="#272D33" d="M54.572,75.398h-23c-7.719,0-14-6.28-14-14v-35.5c0-7.72,6.281-14,14-14h23c7.72,0,14,6.28,14,14v35.5
			C68.572,69.118,62.292,75.398,54.572,75.398z M31.572,15.898c-5.514,0-10,4.486-10,10v35.5c0,5.514,4.486,10,10,10h23
			c5.514,0,10-4.486,10-10v-35.5c0-5.514-4.486-10-10-10H31.572z"/>
	</g>
	<g>
		<g>
			<path fill="#FFFFFF" d="M28.239,52.149v8.63c0,2.179,1.773,3.952,3.953,3.952h8.629L28.239,52.149z"/>
			<path fill="#272D33" d="M45.649,66.731H32.192c-3.283,0-5.953-2.671-5.953-5.952V47.32L45.649,66.731z M30.239,56.979v3.801
				c0,1.076,0.876,1.952,1.953,1.952h3.8L30.239,56.979z"/>
		</g>
	</g>
	<g>
		<path fill="#272D33" d="M36.133,43.438c-2.287,0-4.574-0.87-6.315-2.61l2.828-2.83c1.923,1.924,5.052,1.924,6.976,0l2.828,2.83
			C40.707,42.568,38.42,43.438,36.133,43.438z"/>
	</g>
	<g>
		<path fill="#272D33" d="M57.466,43.438c-2.287,0-4.574-0.87-6.316-2.611l2.828-2.828c1.924,1.922,5.053,1.922,6.977,0l2.827,2.828
			C62.04,42.567,59.753,43.438,57.466,43.438z"/>
	</g>
	<g>
		<path fill="#3EA3BA" d="M35.658,3.648c-7.63,0-14.017,5.24-15.811,12.312c-3.183,2.157-5.275,5.804-5.275,9.938v19.947h1.053
			c6.628,0,12-5.373,12-12v-5.791c1.166,0.379,2.405,0.594,3.697,0.594h31.5c6.627,0,12-5.372,12-12v-13H35.658z"/>
		<path fill="#272D33" d="M15.625,47.846h-3.053V25.898c0-4.394,2.056-8.507,5.535-11.15c2.302-7.75,9.415-13.1,17.551-13.1h41.164
			v15c0,7.72-6.28,14-14,14h-31.5c-0.566,0-1.132-0.035-1.697-0.105v3.303C29.625,41.564,23.345,47.846,15.625,47.846z
			 M35.658,5.648c-6.554,0-12.258,4.442-13.872,10.803l-0.187,0.738l-0.629,0.426c-2.753,1.867-4.397,4.963-4.397,8.283v17.902
			c5.072-0.479,9.053-4.761,9.053-9.955v-8.541l2.617,0.848c1.015,0.329,2.051,0.496,3.08,0.496h31.5c5.514,0,10-4.486,10-10v-11
			H35.658z"/>
	</g>
	<g>
		<g>
			<path fill="#272D33" d="M53.133,57.898v-4c1.103,0,2-0.896,2-2s-0.897-2-2-2s-2,0.896-2,2h-4c0-3.309,2.691-6,6-6
				c3.308,0,6,2.691,6,6S56.44,57.898,53.133,57.898z"/>
		</g>
		<g>
			<rect x="46.633" y="28.898" fill="#272D33" width="4" height="23"/>
		</g>
	</g>
</g>
</svg>
