<?xml version="1.0" encoding="utf-8"?>
<!-- Generator: Adobe Illustrator 16.0.0, SVG Export Plug-In . SVG Version: 6.00 Build 0)  -->
<!DOCTYPE svg PUBLIC "-//W3C//DTD SVG 1.1//EN" "http://www.w3.org/Graphics/SVG/1.1/DTD/svg11.dtd">
<svg version="1.1" id="Capa_1" xmlns="http://www.w3.org/2000/svg" xmlns:xlink="http://www.w3.org/1999/xlink" x="0px" y="0px"
	 width="74.427px" height="105.248px" viewBox="0 0 74.427 105.248" enable-background="new 0 0 74.427 105.248"
	 xml:space="preserve">
<g>
	<g>
		<path fill="#FFFFFF" d="M70.154,57.977c0,2.125-1.723,3.847-3.847,3.847h-3.462c-2.124,0-3.846-1.722-3.846-3.847V50.67
			c0-2.125,1.722-3.847,3.846-3.847h3.462c2.124,0,3.847,1.722,3.847,3.847V57.977z"/>
		<path fill="#272D33" d="M66.308,63.823h-3.462c-3.224,0-5.846-2.622-5.846-5.847V50.67c0-3.225,2.622-5.847,5.846-5.847h3.462
			c3.224,0,5.847,2.622,5.847,5.847v7.307C72.154,61.201,69.531,63.823,66.308,63.823z M62.846,48.823
			c-1.018,0-1.846,0.828-1.846,1.847v7.307c0,1.019,0.828,1.847,1.846,1.847h3.462c1.019,0,1.847-0.828,1.847-1.847V50.67
			c0-1.019-0.828-1.847-1.847-1.847H62.846z"/>
	</g>
	<g>
		<path fill="#FFFFFF" d="M13.154,57.977c0,2.125-1.722,3.847-3.846,3.847H5.846C3.722,61.823,2,60.102,2,57.977V50.67
			c0-2.125,1.722-3.847,3.846-3.847h3.462c2.124,0,3.846,1.722,3.846,3.847V57.977z"/>
		<path fill="#272D33" d="M9.308,63.823H5.846C2.622,63.823,0,61.201,0,57.977V50.67c0-3.225,2.622-5.847,5.846-5.847h3.462
			c3.224,0,5.846,2.622,5.846,5.847v7.307C15.154,61.201,12.531,63.823,9.308,63.823z M5.846,48.823C4.828,48.823,4,49.651,4,50.67
			v7.307c0,1.019,0.828,1.847,1.846,1.847h3.462c1.018,0,1.846-0.828,1.846-1.847V50.67c0-1.019-0.828-1.847-1.846-1.847H5.846z"/>
	</g>
	<g>
		<polyline fill="#B6BDBE" points="10.154,104.323 16.154,92.823 66.654,92.823 72.654,104.323 		"/>
		<polygon fill="#272D33" points="70.881,105.248 65.441,94.823 17.366,94.823 11.927,105.248 8.381,103.398 14.941,90.823 
			67.866,90.823 74.427,103.398 		"/>
	</g>
	<g>
		<path fill="#FFFFFF" d="M45.833,90.764c0,4.176-3.384,7.56-7.559,7.56h-0.472c-4.175,0-7.559-3.384-7.559-7.56V71.395
			c0-4.176,3.384-7.56,7.559-7.56h0.472c4.175,0,7.559,3.384,7.559,7.56V90.764z"/>
		<path fill="#272D33" d="M38.274,100.323h-0.472c-5.271,0-9.559-4.288-9.559-9.56V71.395c0-5.271,4.288-9.56,9.559-9.56h0.472
			c5.271,0,9.559,4.288,9.559,9.56v19.369C47.833,96.035,43.545,100.323,38.274,100.323z M37.802,65.835
			c-3.065,0-5.559,2.493-5.559,5.56v19.369c0,3.066,2.494,5.56,5.559,5.56h0.472c3.066,0,5.559-2.493,5.559-5.56V71.395
			c0-3.066-2.493-5.56-5.559-5.56H37.802z"/>
	</g>
	<g>
		<circle fill="#3EA3BA" cx="38.808" cy="30.347" r="28.347"/>
		<path fill="#272D33" d="M38.807,60.693c-16.732,0-30.346-13.613-30.346-30.347S22.074,0,38.807,0
			C55.54,0,69.154,13.613,69.154,30.347S55.54,60.693,38.807,60.693z M38.807,4C24.28,4,12.461,15.819,12.461,30.347
			c0,14.528,11.819,26.347,26.346,26.347c14.528,0,26.348-11.818,26.348-26.347C65.154,15.819,53.335,4,38.807,4z"/>
	</g>
	<g>
		<circle fill="#B6BDBE" cx="37.154" cy="45.229" r="22.441"/>
		<path fill="#272D33" d="M37.154,69.67c-13.477,0-24.441-10.965-24.441-24.441s10.964-24.44,24.441-24.44
			s24.441,10.964,24.441,24.44S50.631,69.67,37.154,69.67z M37.154,24.788c-11.271,0-20.441,9.169-20.441,20.44
			s9.17,20.441,20.441,20.441s20.441-9.17,20.441-20.441S48.425,24.788,37.154,24.788z"/>
	</g>
	<g>
		<circle fill="#FFFFFF" cx="35.736" cy="58.457" r="28.582"/>
		<path fill="#272D33" d="M35.736,89.04c-16.863,0-30.583-13.72-30.583-30.583s13.719-30.582,30.583-30.582
			s30.582,13.719,30.582,30.582S52.6,89.04,35.736,89.04z M35.736,31.875c-14.658,0-26.583,11.924-26.583,26.582
			S21.079,85.04,35.736,85.04c14.658,0,26.582-11.925,26.582-26.583S50.395,31.875,35.736,31.875z"/>
	</g>
	<g>
		<path fill="#272D33" d="M30.284,49.834h-4c0-2.119-1.723-3.842-3.84-3.842s-3.841,1.723-3.841,3.842h-4
			c0-4.324,3.518-7.842,7.841-7.842S30.284,45.51,30.284,49.834z"/>
	</g>
	<g>
		<path fill="#272D33" d="M53.563,49.834h-4c0-2.119-1.723-3.842-3.841-3.842s-3.841,1.723-3.841,3.842h-4
			c0-4.324,3.518-7.842,7.841-7.842S53.563,45.51,53.563,49.834z"/>
	</g>
	<g>
		<path fill="#272D33" d="M35.5,66.589h-2.629c-3.04,0-5.513-2.474-5.513-5.513c0-2.621,1.838-4.82,4.293-5.377V45.465h4v14.099
			h-2.781c-0.834,0-1.513,0.679-1.513,1.513s0.679,1.513,1.513,1.513H35.5V66.589z"/>
	</g>
	<g>
		<path fill="#FFFFFF" d="M30.861,75.446c3.451,2.334,7.915,3.075,12.148,1.592c4.234-1.485,7.259-4.853,8.496-8.831L30.861,75.446z
			"/>
		<path fill="#272D33" d="M38.522,79.805L38.522,79.805c-3.131,0-6.167-0.934-8.781-2.701l-3.295-2.229l28.151-9.871l-1.182,3.797
			c-1.488,4.785-5.04,8.475-9.744,10.125C42.006,79.51,40.273,79.805,38.522,79.805z M36.426,75.615
			c1.952,0.359,4.009,0.206,5.923-0.465c1.947-0.683,3.63-1.837,4.929-3.342L36.426,75.615z"/>
	</g>
</g>
</svg>
