<?xml version="1.0" encoding="utf-8"?>
<!-- Generator: Adobe Illustrator 16.0.0, SVG Export Plug-In . SVG Version: 6.00 Build 0)  -->
<!DOCTYPE svg PUBLIC "-//W3C//DTD SVG 1.1//EN" "http://www.w3.org/Graphics/SVG/1.1/DTD/svg11.dtd">
<svg version="1.1" id="Capa_1" xmlns="http://www.w3.org/2000/svg" xmlns:xlink="http://www.w3.org/1999/xlink" x="0px" y="0px"
	 width="81.332px" height="99.334px" viewBox="0 0 81.332 99.334" enable-background="new 0 0 81.332 99.334" xml:space="preserve">
<g>
	<g>
		<path fill="#B6BDBE" d="M19.682,99.034v-19.59c0-4.556,3.693-8.249,8.249-8.249H70.72c4.557,0,8.249,3.693,8.249,8.249v19.59"/>
		<path fill="#272D33" d="M80.969,99.034h-4v-19.59c0-3.446-2.804-6.249-6.249-6.249H27.931c-3.445,0-6.249,2.803-6.249,6.249v19.59
			h-4v-19.59c0-5.651,4.598-10.249,10.249-10.249H70.72c5.651,0,10.249,4.598,10.249,10.249V99.034z"/>
	</g>
	<g>
		<path fill="#3EA3BA" d="M74.733,45.018c0-13.629-12.496-24.678-27.909-24.678c-11.551,0-21.454,6.207-25.695,15.051
			c-0.078-0.009-0.158-0.014-0.237-0.021c-1.453-4.014-5.287-6.886-9.801-6.886c-5.763,0-10.433,4.671-10.433,10.433
			c0,2.865,1.156,5.46,3.025,7.346c-0.598,1.703-0.939,3.527-0.939,5.436c0,9.074,7.357,16.432,16.433,16.432
			c0.799,0,1.58-0.076,2.35-0.187c-0.001,0.014-0.002,0.027-0.002,0.041c0,3.538,2.802,6.405,6.26,6.405
			c2.181,0,4.099-1.142,5.219-2.872c1.675,2.073,4.207,3.394,7.04,3.394c3.604,0,6.708-2.143,8.19-5.248
			c3.157-0.139,6.174-0.747,8.969-1.738c1.658,2.33,4.325,3.857,7.358,3.857c5.041,0,9.129-4.184,9.129-9.342
			c0-2.283-0.803-4.372-2.132-5.994C73.582,53.027,74.733,49.143,74.733,45.018z"/>
		<path fill="#272D33" d="M40.043,76.91c-2.56,0-4.999-0.886-6.954-2.484c-1.467,1.255-3.334,1.963-5.305,1.963
			c-3.831,0-7.061-2.667-7.991-6.272c-0.208,0.009-0.414,0.013-0.617,0.013c-10.164,0-18.433-8.269-18.433-18.432
			c0-1.664,0.232-3.324,0.689-4.951c-1.798-2.209-2.775-4.946-2.775-7.83c0-6.855,5.577-12.433,12.433-12.433
			c3.973,0,7.646,1.917,9.955,5.004C26.369,23.404,36.12,18.34,46.824,18.34c16.492,0,29.909,11.968,29.909,26.678
			c0,3.896-0.969,7.773-2.813,11.293c1.148,1.82,1.769,3.951,1.769,6.129c0,6.254-4.992,11.342-11.129,11.342
			c-3.038,0-5.946-1.297-8.032-3.529c-2.292,0.702-4.66,1.15-7.068,1.34C47.437,74.9,43.926,76.91,40.043,76.91z M32.825,68.112
			l1.734,2.147c1.36,1.685,3.359,2.65,5.484,2.65c2.729,0,5.175-1.574,6.386-4.109l0.518-1.084l1.199-0.053
			c2.881-0.126,5.703-0.673,8.389-1.625l1.423-0.505l0.875,1.23c1.363,1.917,3.452,3.017,5.729,3.017
			c3.931,0,7.129-3.294,7.129-7.342c0-1.727-0.597-3.405-1.679-4.727l-0.887-1.083l0.713-1.204
			c1.922-3.245,2.896-6.746,2.896-10.408c0-12.504-11.623-22.678-25.909-22.678c-10.46,0-19.838,5.463-23.892,13.916l-0.619,1.29
			l-2.879-0.327l-0.423-1.169c-1.206-3.329-4.388-5.566-7.92-5.566c-4.65,0-8.433,3.783-8.433,8.433
			c0,2.238,0.868,4.346,2.446,5.938l0.882,0.889l-0.415,1.182c-0.548,1.563-0.827,3.168-0.827,4.773
			c0,7.957,6.475,14.432,14.433,14.432c0.619,0,1.275-0.053,2.065-0.166l2.368-0.34l-0.085,2.391c0,2.398,1.91,4.375,4.259,4.375
			c1.422,0,2.746-0.732,3.54-1.959L32.825,68.112z"/>
	</g>
	<g>
		<path fill="#FFFFFF" d="M47.72,83.778c-5.282,0-9.565-4.282-9.565-9.565v-51.2c0-5.282,4.283-9.565,9.565-9.565l0,0
			c5.282,0,9.564,4.283,9.564,9.565v51.2C57.284,79.496,53.002,83.778,47.72,83.778L47.72,83.778z"/>
		<path fill="#272D33" d="M47.72,85.778c-6.377,0-11.565-5.188-11.565-11.565v-51.2c0-6.378,5.188-11.565,11.565-11.565
			s11.564,5.188,11.564,11.565v51.2C59.284,80.59,54.097,85.778,47.72,85.778z M47.72,15.447c-4.172,0-7.565,3.394-7.565,7.565v51.2
			c0,4.172,3.394,7.565,7.565,7.565c4.171,0,7.564-3.394,7.564-7.565v-51.2C55.284,18.841,51.891,15.447,47.72,15.447z"/>
	</g>
	<g>
		<path fill="#FFFFFF" d="M19.902,31.824c-2.298,0.597-5.808,3.125-5.443,5.525l1.291,8.511c0.364,2.4,4.466,3.774,6.838,3.663
			L19.902,31.824z"/>
		<path fill="#272D33" d="M22.313,51.529C22.313,51.529,22.313,51.529,22.313,51.529c-3.116,0-7.985-1.707-8.54-5.369l-1.292-8.51
			c-0.56-3.695,3.735-6.936,6.918-7.762l2.147-0.558l3.351,22.086l-2.216,0.104C22.562,51.527,22.439,51.529,22.313,51.529z
			 M18.326,34.77c-1.117,0.775-1.969,1.758-1.89,2.28l1.292,8.511c0.08,0.525,1.168,1.215,2.482,1.623L18.326,34.77z"/>
	</g>
	<g>
		<path fill="#FFFFFF" d="M69.975,37.949c0,13.702-11.107,24.811-24.811,24.811l0,0c-13.702,0-24.811-11.108-24.811-24.811V27.49
			c0-13.701,11.108-24.809,24.811-24.809l0,0c13.703,0,24.811,11.107,24.811,24.809V37.949z"/>
		<path fill="#272D33" d="M45.164,64.76c-14.784,0-26.811-12.027-26.811-26.811V27.49c0-14.783,12.027-26.809,26.811-26.809
			c14.783,0,26.811,12.025,26.811,26.809v10.459C71.975,52.732,59.947,64.76,45.164,64.76z M45.164,4.682
			c-12.578,0-22.811,10.231-22.811,22.809v10.459c0,12.578,10.232,22.811,22.811,22.811c12.577,0,22.811-10.232,22.811-22.811V27.49
			C67.975,14.913,57.741,4.682,45.164,4.682z"/>
	</g>
	<path fill="#3EA3BA" d="M22.393,27.287v7.71c1.272,0.222,2.577,0.344,3.911,0.344c12.487,0,22.607-10.122,22.607-22.606V5.025
		C47.64,4.803,46.334,4.682,45,4.682C32.516,4.682,22.393,14.802,22.393,27.287z"/>
	<g>
		<path fill="#3EA3BA" d="M49.762,3.357v4.57c0,12.082,8.724,22.121,20.213,24.18v-4.572C69.975,15.453,61.253,5.416,49.762,3.357z"
			/>
		<path fill="#272D33" d="M71.975,34.497l-2.353-0.421c-12.666-2.27-21.86-13.268-21.86-26.148V0.967l2.353,0.422
			c12.667,2.27,21.86,13.266,21.86,26.146V34.497z M51.762,5.878v2.05c0,10.127,6.688,18.883,16.213,21.658v-2.051
			C67.975,17.408,61.287,8.653,51.762,5.878z"/>
	</g>
	<g>
		<path fill="#3EA3BA" d="M26.176,20.764c-0.163-6.096-4.912-10.951-10.689-10.878C9.655,9.959,4.992,15.023,5.069,21.196
			c0.062,4.885,5.604,14.435,20.729,14.244c12.492-0.157,22.737-9.506,24.519-21.604"/>
		<path fill="#272D33" d="M25.356,37.443c-8.726,0-14.006-3.107-16.914-5.74c-3.909-3.539-5.338-7.735-5.373-10.482
			c-0.044-3.498,1.207-6.809,3.521-9.322c2.344-2.545,5.494-3.971,8.87-4.013c6.826-0.054,12.523,5.667,12.714,12.824l-3.999,0.106
			c-0.133-4.983-4.032-9.002-8.665-8.931c-2.265,0.028-4.388,0.995-5.979,2.723c-1.62,1.759-2.495,4.09-2.464,6.563
			c0.023,1.816,1.099,4.888,4.058,7.567c2.427,2.199,6.945,4.806,14.645,4.702c11.398-0.144,20.889-8.511,22.565-19.896l3.958,0.583
			c-1.965,13.34-13.099,23.145-26.473,23.313C25.666,37.442,25.511,37.443,25.356,37.443z"/>
	</g>
	<g>
		<rect x="33.511" y="38.73" fill="#272D33" width="4.877" height="4"/>
	</g>
	<g>
		<rect x="53.063" y="38.73" fill="#272D33" width="4.877" height="4"/>
	</g>
	<g>
		<path fill="#272D33" d="M45.521,53.857c-2.17,0-4.34-0.825-5.992-2.477l2.828-2.829c1.744,1.744,4.582,1.743,6.326,0.001
			l2.828,2.828C49.859,53.032,47.69,53.857,45.521,53.857z"/>
	</g>
</g>
</svg>
