<?xml version="1.0" encoding="utf-8"?>
<!-- Generator: Adobe Illustrator 16.0.0, SVG Export Plug-In . SVG Version: 6.00 Build 0)  -->
<!DOCTYPE svg PUBLIC "-//W3C//DTD SVG 1.1//EN" "http://www.w3.org/Graphics/SVG/1.1/DTD/svg11.dtd">
<svg version="1.1" id="Capa_1" xmlns="http://www.w3.org/2000/svg" xmlns:xlink="http://www.w3.org/1999/xlink" x="0px" y="0px"
	 width="81.332px" height="97.733px" viewBox="0 0 81.332 97.733" enable-background="new 0 0 81.332 97.733" xml:space="preserve">
<g>
	<g>
		<path fill="#FFFFFF" d="M74.177,39.938c0,4.114-3.335,7.449-7.449,7.449H14.959c-4.114,0-7.449-3.335-7.449-7.449l0,0
			c0-4.113,3.335-7.448,7.449-7.448h51.769C70.842,32.49,74.177,35.825,74.177,39.938L74.177,39.938z"/>
		<path fill="#272D33" d="M66.728,49.388H14.959c-5.21,0-9.449-4.239-9.449-9.449s4.239-9.448,9.449-9.448h51.769
			c5.21,0,9.449,4.238,9.449,9.448S71.938,49.388,66.728,49.388z M14.959,34.49c-3.005,0-5.449,2.443-5.449,5.448
			s2.444,5.449,5.449,5.449h51.769c3.004,0,5.449-2.444,5.449-5.449s-2.445-5.448-5.449-5.448H14.959z"/>
	</g>
	<g>
		<path fill="#FFFFFF" d="M2.247,100.732V87.342c0-5.918,5.42-10.714,12.105-10.714h53.124c6.686,0,12.103,4.796,12.103,10.714
			v13.391"/>
		<path fill="#272D33" d="M81.579,100.732h-4V87.342c0-4.805-4.532-8.714-10.103-8.714H14.353c-5.572,0-10.105,3.909-10.105,8.714
			v13.391h-4V87.342c0-7.011,6.328-12.714,14.105-12.714h53.124c7.775,0,14.103,5.703,14.103,12.714V100.732z"/>
	</g>
	<g>
		<path fill="#FFFFFF" d="M67.921,55.802c0,11.501-9.324,20.823-20.824,20.823H35.859c-11.502,0-20.824-9.322-20.824-20.823v-32.71
			c0-11.5,9.322-20.824,20.824-20.824h11.237c11.5,0,20.824,9.324,20.824,20.824V55.802z"/>
		<path fill="#272D33" d="M47.097,78.625H35.859c-12.585,0-22.824-10.238-22.824-22.823v-32.71
			c0-12.585,10.239-22.824,22.824-22.824h11.237c12.586,0,22.824,10.239,22.824,22.824v32.71
			C69.921,68.387,59.683,78.625,47.097,78.625z M35.859,4.268c-10.38,0-18.824,8.445-18.824,18.824v32.71
			c0,10.38,8.444,18.823,18.824,18.823h11.237c10.38,0,18.824-8.443,18.824-18.823v-32.71c0-10.379-8.444-18.824-18.824-18.824
			H35.859z"/>
	</g>
	<g>
		<path fill="#3EA3BA" d="M67.921,59.463V24.209c0-6.141-2.674-11.643-6.901-15.453c0.117,1.033,0.198,2.084,0.198,3.162v32.711
			c0,0-1.579,10.4-4.139,14.113c-2.439-4.681-8.496-8.002-15.601-8.002s-13.162,3.321-15.602,8.002
			c-2.561-3.713-4.138-14.113-4.138-14.113V22.615c4.497-4.369,7.371-10.998,7.371-18.43c0-0.259-0.025-0.51-0.032-0.766
			c-8.167,2.815-14.043,10.549-14.043,19.672v1.117v2.717v33.6v8.279v6.416c0,3.965,3.214,7.178,7.177,7.178h0.684
			c1.866,0,3.56-0.718,4.836-1.885c0.408,3.576,3.441,6.354,7.126,6.354h0.684c2.498,0,4.695-1.277,5.98-3.213
			c1.285,1.936,3.483,3.213,5.981,3.213h0.684c3.685,0,6.717-2.777,7.126-6.354c1.276,1.167,2.97,1.885,4.836,1.885h0.683
			c3.964,0,7.178-3.213,7.178-7.178V60.525C68.009,60.163,67.973,59.811,67.921,59.463z"/>
		<path fill="#272D33" d="M48.187,88.867h-0.684c-2.227,0-4.338-0.802-5.981-2.217c-1.644,1.415-3.754,2.217-5.98,2.217h-0.684
			c-3.631,0-6.81-2.116-8.29-5.238c-1.148,0.504-2.396,0.77-3.672,0.77h-0.684c-5.06,0-9.177-4.117-9.177-9.178V23.092
			c0-9.724,6.185-18.389,15.391-21.563l2.573-0.887l0.091,2.979c0.011,0.188,0.021,0.374,0.021,0.564
			c0,7.385-2.677,14.35-7.371,19.254v21.036c0.337,2.164,1.255,6.956,2.474,10.35c3.458-3.776,9.083-6.085,15.266-6.085
			s11.807,2.309,15.265,6.085c1.219-3.395,2.138-8.187,2.475-10.35V11.918c0-0.893-0.059-1.825-0.186-2.937l-0.598-5.249
			l3.924,3.537c4.807,4.332,7.563,10.507,7.563,16.939V59.32c0.06,0.438,0.088,0.823,0.088,1.205v14.695
			c0,5.061-4.117,9.178-9.178,9.178h-0.683c-1.276,0-2.524-0.266-3.672-0.77C54.996,86.751,51.817,88.867,48.187,88.867z
			 M41.521,80.039l1.667,2.509c0.964,1.452,2.576,2.319,4.314,2.319h0.684c2.631,0,4.84-1.969,5.139-4.58l0.445-3.894l2.892,2.644
			c0.959,0.878,2.197,1.361,3.486,1.361h0.683c2.855,0,5.178-2.322,5.178-5.178V60.525c0-0.224-0.021-0.468-0.066-0.769
			l-0.021-0.294V24.209c0-3.434-0.954-6.779-2.703-9.682l-0.023,30.401c-0.168,1.111-1.727,10.972-4.469,14.948l-1.886,2.734
			l-1.534-2.945c-2.159-4.143-7.716-6.926-13.827-6.926c-6.112,0-11.669,2.783-13.828,6.926l-1.535,2.945l-1.885-2.733
			c-2.744-3.978-4.301-13.839-4.469-14.95l-0.022-0.299V21.771l0.606-0.589c3.795-3.688,6.162-8.948,6.665-14.688
			c-6.066,3.23-9.975,9.58-9.975,16.598v52.129c0,2.855,2.322,5.178,5.177,5.178h0.684c1.289,0,2.527-0.483,3.486-1.361l2.892-2.644
			l0.445,3.894c0.298,2.611,2.508,4.58,5.139,4.58h0.684c1.737,0,3.351-0.867,4.314-2.319L41.521,80.039z"/>
	</g>
	<g>
		<path fill="#272D33" d="M56.485,22.573c-16.472,0-29.375-7.749-29.375-17.643h4c0,7.396,11.62,13.643,25.375,13.643
			c5.912,0,11.685-1.149,16.255-3.238l1.663,3.638C69.249,21.328,63.053,22.573,56.485,22.573z"/>
	</g>
	<g>
		<path fill="#3EA3BA" d="M67.551,19.238C65.741,9.58,57.279,2.268,47.097,2.268H35.859c-2.313,0-4.531,0.393-6.61,1.09
			c-0.091,0.518-0.139,1.042-0.139,1.573c0,8.64,12.256,15.643,27.375,15.643C60.425,20.573,64.166,20.094,67.551,19.238z"/>
		<path fill="#272D33" d="M56.485,22.573c-16.472,0-29.375-7.749-29.375-17.643c0-0.634,0.057-1.278,0.168-1.917l0.205-1.175
			l1.13-0.378c2.362-0.791,4.8-1.193,7.246-1.193h11.237c10.971,0,20.4,7.824,22.42,18.603l0.346,1.847l-1.821,0.461
			C64.378,22.104,60.49,22.573,56.485,22.573z M31.111,4.887c0,0.015,0,0.029,0,0.044c0,7.396,11.62,13.643,25.375,13.643
			c2.977,0,5.878-0.281,8.649-0.838C62.799,9.828,55.496,4.268,47.097,4.268H35.859C34.266,4.268,32.674,4.477,31.111,4.887z"/>
	</g>
	<g>
		<path fill="#FFFFFF" d="M45.986,47.623c0,2.429-1.97,4.398-4.399,4.398l0,0c-2.429,0-4.399-1.97-4.399-4.398"/>
		<path fill="#272D33" d="M41.587,54.021c-3.528,0-6.399-2.87-6.399-6.398h4c0,1.322,1.077,2.398,2.399,2.398
			c1.323,0,2.399-1.076,2.399-2.398h4C47.986,51.151,45.116,54.021,41.587,54.021z"/>
	</g>
	<g>
		<path fill="#272D33" d="M36.574,31.399c-1.924-1.923-5.053-1.923-6.977,0l-2.828-2.829c3.483-3.481,9.149-3.481,12.632,0
			L36.574,31.399z"/>
	</g>
	<g>
		<g>
			<rect x="30.664" y="34.216" fill="#272D33" width="4.843" height="4"/>
		</g>
	</g>
	<g>
		<path fill="#272D33" d="M52.774,31.399c-1.923-1.923-5.053-1.923-6.977,0l-2.827-2.829c3.482-3.481,9.149-3.481,12.632,0
			L52.774,31.399z"/>
	</g>
	<g>
		<g>
			<rect x="46.865" y="34.216" fill="#272D33" width="4.843" height="4"/>
		</g>
	</g>
	<g>
		<path fill="#FFFFFF" d="M36.446,62.258v1.938c0,2.059,1.67,3.728,3.728,3.728h2.609c2.058,0,3.726-1.669,3.726-3.728v-1.938
			H36.446z"/>
		<path fill="#272D33" d="M42.783,69.923h-2.609c-3.158,0-5.728-2.569-5.728-5.728v-3.938h14.063v3.938
			C48.509,67.354,45.94,69.923,42.783,69.923z M38.448,64.258c0.032,0.924,0.794,1.665,1.726,1.665h2.609
			c0.931,0,1.692-0.741,1.725-1.665H38.448z"/>
	</g>
</g>
</svg>
