<?xml version="1.0" encoding="utf-8"?>
<!-- Generator: Adobe Illustrator 16.0.0, SVG Export Plug-In . SVG Version: 6.00 Build 0)  -->
<!DOCTYPE svg PUBLIC "-//W3C//DTD SVG 1.1//EN" "http://www.w3.org/Graphics/SVG/1.1/DTD/svg11.dtd">
<svg version="1.1" id="Capa_1" xmlns="http://www.w3.org/2000/svg" xmlns:xlink="http://www.w3.org/1999/xlink" x="0px" y="0px"
	 width="72.378px" height="104.744px" viewBox="0 0 72.378 104.744" enable-background="new 0 0 72.378 104.744"
	 xml:space="preserve">
<g>
	<g>
		<circle fill="#FFFFFF" cx="62.628" cy="53.75" r="6"/>
		<path fill="#272D33" d="M62.628,61.75c-4.411,0-8-3.589-8-8s3.589-8,8-8s8,3.589,8,8S67.039,61.75,62.628,61.75z M62.628,49.75
			c-2.205,0-4,1.794-4,4s1.795,4,4,4c2.206,0,4-1.794,4-4S64.834,49.75,62.628,49.75z"/>
	</g>
	<g>
		<path fill="#B6BDBE" d="M70.378,27.251c0-4.243-2.86-7.811-6.755-8.9c0-0.033,0.005-0.066,0.005-0.1c0-5.109-4.142-9.25-9.25-9.25
			c-1.095,0-2.141,0.199-3.116,0.549c-1.991-4.446-6.446-7.549-11.634-7.549c-0.855,0-4.144-0.001-5-0.001
			c-5.188,0-9.643,3.104-11.634,7.55C22.02,9.2,20.974,9,19.878,9c-5.108,0-9.25,4.142-9.25,9.25c0,0.034,0.005,0.066,0.005,0.101
			c-3.895,1.09-6.755,4.656-6.755,8.899c0,2.577,1.057,4.907,2.757,6.584c-1.544,1.499-2.507,3.594-2.507,5.916
			c0,4.556,3.694,8.25,8.25,8.25c4.557,0,8.25-3.694,8.25-8.25c0-1.969-0.691-3.774-1.843-5.192c2.183-1.692,34.504-1.691,36.686,0
			c-1.15,1.418-1.843,3.225-1.843,5.193c0,4.556,3.694,8.25,8.25,8.25c4.557,0,8.25-3.694,8.25-8.25
			c0-2.322-0.963-4.418-2.507-5.916C69.322,32.157,70.378,29.827,70.378,27.251z"/>
		<path fill="#272D33" d="M61.878,50.001c-5.651,0-10.25-4.599-10.25-10.25c0-1.328,0.262-2.641,0.758-3.859
			c-2.71-0.313-7.882-0.604-15.261-0.604c-7.375,0-12.545,0.29-15.254,0.604c0.496,1.219,0.757,2.53,0.757,3.858
			c0,5.651-4.598,10.25-10.25,10.25c-5.651,0-10.25-4.599-10.25-10.25c0-2.151,0.658-4.196,1.879-5.913
			c-1.383-1.905-2.129-4.188-2.129-6.587c0-4.524,2.745-8.589,6.829-10.337C9.371,11.337,14.127,7,19.878,7
			c0.7,0,1.397,0.066,2.088,0.199C24.605,2.776,29.407,0,34.628,0l5,0.001c5.222,0,10.022,2.776,12.663,7.199
			c0.689-0.133,1.388-0.199,2.087-0.199c5.751,0,10.508,4.337,11.171,9.912c4.084,1.75,6.829,5.813,6.829,10.338
			c0,2.399-0.745,4.682-2.129,6.586c1.222,1.717,1.879,3.762,1.879,5.914C72.128,45.402,67.53,50.001,61.878,50.001z M37.125,31.288
			c11.541,0,18.127,0.568,19.571,1.689l1.616,1.252l-1.289,1.588c-0.912,1.126-1.396,2.486-1.396,3.934
			c0,3.445,2.804,6.25,6.25,6.25s6.25-2.805,6.25-6.25c0-1.701-0.675-3.292-1.899-4.481l-1.467-1.424l1.455-1.435
			c1.394-1.375,2.161-3.207,2.161-5.16c0-3.234-2.177-6.102-5.294-6.975l-1.461-0.408l0.005-1.666
			c-0.025-3.975-3.269-7.201-7.25-7.201c-0.819,0-1.641,0.145-2.44,0.432l-1.744,0.625l-0.757-1.69
			c-1.731-3.868-5.582-6.366-9.809-6.366l-5-0.001c-4.226,0-8.076,2.499-9.808,6.367l-0.757,1.69l-1.744-0.625
			C21.519,11.146,20.698,11,19.878,11c-3.981,0-7.223,3.226-7.25,7.2c0.003,0.051,0.004,0.1,0.004,0.15v1.517l-1.46,0.409
			c-3.117,0.872-5.294,3.74-5.294,6.974c0,1.953,0.768,3.786,2.162,5.16l1.455,1.435l-1.466,1.424c-1.226,1.189-1.9,2.781-1.9,4.481
			c0,3.446,2.804,6.25,6.25,6.25s6.25-2.804,6.25-6.25c0-1.447-0.482-2.808-1.396-3.933l-1.289-1.588l1.616-1.253
			C19.005,31.856,25.587,31.288,37.125,31.288z"/>
	</g>
	<g>
		<path fill="#FFFFFF" d="M70,104.744V92.969c0-5.203-4.764-9.421-10.643-9.421H44.214c0.021-0.235,0.036-0.473,0.036-0.715v-20.5
			c0-4.418-3.582-8-8-8h-0.5c-4.419,0-8,3.582-8,8v20.5c0,0.242,0.015,0.479,0.036,0.715H12.645C6.766,83.548,2,87.766,2,92.969
			v11.775"/>
		<path fill="#272D33" d="M72,104.744h-4V92.969c0-4.092-3.877-7.421-8.643-7.421H42.033l0.188-2.173
			c0.016-0.179,0.028-0.358,0.028-0.542v-20.5c0-3.309-2.691-6-6-6h-0.5c-3.308,0-6,2.691-6,6v20.5c0,0.181,0.012,0.357,0.028,0.533
			l0.198,2.182H12.645C7.878,85.548,4,88.877,4,92.969v11.775H0V92.969c0-6.298,5.673-11.421,12.645-11.421H25.75V62.333
			c0-5.514,4.486-10,10-10h0.5c5.514,0,10,4.486,10,10v19.215h13.107C66.329,81.548,72,86.671,72,92.969V104.744z"/>
	</g>
	<g>
		<path fill="#FFFFFF" d="M61.153,24.25v29.072c0,13.134-10.646,23.781-23.781,23.781l0,0c-13.135,0-23.782-10.647-23.782-23.781
			V24.25"/>
		<path fill="#272D33" d="M37.372,79.104c-14.216,0-25.782-11.565-25.782-25.781V24.25h4v29.072
			c0,12.011,9.771,21.781,21.782,21.781c12.01,0,21.781-9.771,21.781-21.781V24.25h4v29.072
			C63.153,67.538,51.588,79.104,37.372,79.104z"/>
	</g>
	<g>
		<path fill="#FFFFFF" d="M37.378,69.055c2.116,0,3.983-1.296,5.125-3.276"/>
		<path fill="#272D33" d="M37.378,71.055v-4c1.322,0,2.559-0.829,3.393-2.276l3.466,1.998
			C42.691,69.456,40.128,71.055,37.378,71.055z"/>
	</g>
	<g>
		<path fill="#3EA3BA" d="M43.462,58.333c-2.206,0-4-1.794-4-4V41.667c0-2.205,1.794-4,4-4h12.667c2.205,0,4,1.795,4,4v12.666
			c0,2.206-1.795,4-4,4H43.462z"/>
		<path fill="#272D33" d="M56.129,60.333H43.462c-3.309,0-6-2.691-6-6V41.667c0-3.309,2.691-6,6-6h12.667c3.309,0,6,2.691,6,6
			v12.666C62.129,57.642,59.438,60.333,56.129,60.333z M43.462,39.667c-1.103,0-2,0.896-2,2v12.666c0,1.104,0.897,2,2,2h12.667
			c1.103,0,2-0.896,2-2V41.667c0-1.104-0.897-2-2-2H43.462z"/>
	</g>
	<g>
		<path fill="#3EA3BA" d="M14.796,58.333c-2.206,0-4-1.794-4-4V41.667c0-2.205,1.794-4,4-4h12.667c2.205,0,4,1.795,4,4v12.666
			c0,2.206-1.795,4-4,4H14.796z"/>
		<path fill="#272D33" d="M27.463,60.333H14.796c-3.309,0-6-2.691-6-6V41.667c0-3.309,2.691-6,6-6h12.667c3.308,0,6,2.691,6,6
			v12.666C33.463,57.642,30.771,60.333,27.463,60.333z M14.796,39.667c-1.103,0-2,0.896-2,2v12.666c0,1.104,0.897,2,2,2h12.667
			c1.103,0,2-0.896,2-2V41.667c0-1.104-0.897-2-2-2H14.796z"/>
	</g>
	<g>
		<path fill="#272D33" d="M41.462,48.333h-4c0-1.103-0.896-2-1.999-2c-1.104,0-2.001,0.897-2.001,2h-4c0-3.309,2.692-6,6.001-6
			C38.771,42.333,41.462,45.024,41.462,48.333z"/>
	</g>
	<g>
		<path fill="#B6BDBE" d="M29.563,24.291c0,4.294-3.481,7.776-7.777,7.776c-4.295,0-7.776-3.482-7.776-7.776"/>
		<path fill="#272D33" d="M21.786,34.067c-5.391,0-9.776-4.386-9.776-9.776h4c0,3.185,2.592,5.776,5.776,5.776
			c3.186,0,5.777-2.592,5.777-5.776h4C31.563,29.682,27.178,34.067,21.786,34.067z"/>
	</g>
	<g>
		<path fill="#B6BDBE" d="M45.526,24.291c0,4.294-3.48,7.776-7.776,7.776c-4.295,0-7.776-3.482-7.776-7.776"/>
		<path fill="#272D33" d="M37.75,34.067c-5.391,0-9.776-4.386-9.776-9.776h4c0,3.185,2.592,5.776,5.776,5.776
			c3.186,0,5.776-2.592,5.776-5.776h4C47.526,29.682,43.141,34.067,37.75,34.067z"/>
	</g>
	<g>
		<path fill="#B6BDBE" d="M61.247,24.291c0,4.294-3.481,7.776-7.777,7.776c-4.295,0-7.776-3.482-7.776-7.776"/>
		<path fill="#272D33" d="M53.47,34.067c-5.391,0-9.776-4.386-9.776-9.776h4c0,3.185,2.592,5.776,5.776,5.776
			c3.186,0,5.777-2.592,5.777-5.776h4C63.247,29.682,58.861,34.067,53.47,34.067z"/>
	</g>
	<g>
		<path fill="#272D33" d="M47.334,100.333H24.667c-5.514,0-10-4.485-10-10v-6.666h4v6.666c0,3.309,2.691,6,6,6h22.667
			c3.309,0,6-2.691,6-6v-6.666h4v6.666C57.334,95.848,52.848,100.333,47.334,100.333z"/>
	</g>
</g>
</svg>
