<?xml version="1.0" encoding="utf-8"?>
<!-- Generator: Adobe Illustrator 16.0.0, SVG Export Plug-In . SVG Version: 6.00 Build 0)  -->
<!DOCTYPE svg PUBLIC "-//W3C//DTD SVG 1.1//EN" "http://www.w3.org/Graphics/SVG/1.1/DTD/svg11.dtd">
<svg version="1.1" id="Capa_1" xmlns="http://www.w3.org/2000/svg" xmlns:xlink="http://www.w3.org/1999/xlink" x="0px" y="0px"
	 width="72.378px" height="104.744px" viewBox="0 0 72.378 104.744" enable-background="new 0 0 72.378 104.744"
	 xml:space="preserve">
<g>
	<g>
		<path fill="#3EA3BA" d="M3.345,102.034V90.259c0-5.203,4.766-9.421,10.645-9.421h46.713c5.879,0,10.643,4.218,10.643,9.421v11.775
			"/>
		<path fill="#272D33" d="M73.345,102.034h-4V90.259c0-4.092-3.878-7.421-8.643-7.421H13.989c-4.767,0-8.645,3.329-8.645,7.421
			v11.775h-4V90.259c0-6.298,5.672-11.421,12.645-11.421h46.713c6.971,0,12.643,5.123,12.643,11.421V102.034z"/>
	</g>
	<g>
		<path fill="#FFFFFF" d="M46.595,80.032c0,4.954-4.017,8.97-8.97,8.97h-0.561c-4.954,0-8.97-4.016-8.97-8.97V57.048
			c0-4.954,4.016-8.97,8.97-8.97h0.561c4.953,0,8.97,4.016,8.97,8.97V80.032z"/>
		<path fill="#272D33" d="M37.625,91.002h-0.561c-6.049,0-10.97-4.921-10.97-10.97V57.048c0-6.049,4.921-10.97,10.97-10.97h0.561
			c6.049,0,10.97,4.921,10.97,10.97v22.984C48.595,86.081,43.674,91.002,37.625,91.002z M37.064,50.078
			c-3.843,0-6.97,3.127-6.97,6.97v22.984c0,3.843,3.126,6.97,6.97,6.97h0.561c3.843,0,6.97-3.127,6.97-6.97V57.048
			c0-3.843-3.127-6.97-6.97-6.97H37.064z"/>
	</g>
	<g>
		<path fill="#FFFFFF" d="M65.965,52.821c0,2.594-2.103,4.696-4.694,4.696h-0.393c-2.594,0-4.695-2.103-4.695-4.696v-8.608
			c0-2.594,2.102-4.695,4.695-4.695h0.393c2.592,0,4.694,2.102,4.694,4.695V52.821z"/>
		<path fill="#272D33" d="M61.271,59.518h-0.393c-3.692,0-6.695-3.004-6.695-6.696v-8.608c0-3.691,3.003-6.695,6.695-6.695h0.393
			c3.691,0,6.694,3.004,6.694,6.695v8.608C67.965,56.514,64.962,59.518,61.271,59.518z M60.878,41.518
			c-1.486,0-2.695,1.209-2.695,2.695v8.608c0,1.487,1.209,2.696,2.695,2.696h0.393c1.485,0,2.694-1.209,2.694-2.696v-8.608
			c0-1.486-1.209-2.695-2.694-2.695H60.878z"/>
	</g>
	<g>
		<path fill="#FFFFFF" d="M60.456,50.612c0,13.134-10.646,23.781-23.781,23.781l0,0c-13.135,0-23.781-10.647-23.781-23.781V31.588
			c0-13.133,10.646-23.779,23.781-23.779l0,0c13.135,0,23.781,10.646,23.781,23.779V50.612z"/>
		<path fill="#272D33" d="M36.675,76.394c-14.216,0-25.781-11.565-25.781-25.781V31.588c0-14.215,11.565-25.779,25.781-25.779
			s25.781,11.564,25.781,25.779v19.024C62.456,64.828,50.891,76.394,36.675,76.394z M36.675,9.809
			c-12.011,0-21.781,9.771-21.781,21.779v19.024c0,12.011,9.771,21.781,21.781,21.781c12.01,0,21.781-9.771,21.781-21.781V31.588
			C58.456,19.579,48.685,9.809,36.675,9.809z"/>
	</g>
	<g>
		<path fill="#FFFFFF" d="M36.675,67.394c-9.254,0-16.781-7.528-16.781-16.781"/>
		<path fill="#272D33" d="M36.675,69.394c-10.356,0-18.781-8.425-18.781-18.781h4c0,8.15,6.631,14.781,14.781,14.781V69.394z"/>
	</g>
	<g>
		<path fill="#B6BDBE" d="M67.504,19.29c0.432-1.179,0.679-2.445,0.679-3.772v-9h-40c-3.848,0-7.23,1.98-9.197,4.975h-3.777
			c-4.707,0-8.525,3.816-8.525,8.525v31h6v-18.5c0-3.314,2.688-6,6-6h0.725c5.167,5.896,13.806,9.772,23.613,9.772
			c13.413,0,24.671-7.233,27.798-17H67.504z"/>
		<path fill="#272D33" d="M14.683,53.018h-10v-33c0-5.804,4.722-10.525,10.525-10.525h2.754c2.459-3.134,6.203-4.975,10.221-4.975
			h42v11c0,0.593-0.042,1.185-0.124,1.772h3.5l-0.836,2.61c-3.467,10.827-15.681,18.39-29.702,18.39
			c-9.638,0-18.716-3.637-24.495-9.77c-2.133,0.083-3.843,1.844-3.843,3.997V53.018z M8.683,49.018h2v-16.5c0-4.411,3.588-8,8-8
			h1.631l0.598,0.682c4.988,5.692,13.253,9.091,22.109,9.091c11.102,0,20.854-5.227,24.815-13h-3.193l0.983-2.688
			c0.369-1.009,0.557-2.047,0.557-3.085v-7h-38c-3.037,0-5.851,1.522-7.526,4.072l-0.592,0.902h-4.856
			c-3.599,0-6.525,2.928-6.525,6.525V49.018z"/>
	</g>
	<g>
		<path fill="#FFFFFF" d="M12.894,39.566c-2.361,0.246-6.211,2.219-6.211,4.646v8.608c0,2.428,3.85,4.401,6.211,4.647V39.566z"/>
		<path fill="#272D33" d="M14.894,59.688l-2.207-0.23c-3.271-0.34-8.004-2.898-8.004-6.636v-8.608c0-3.736,4.732-6.295,8.004-6.636
			l2.207-0.229V59.688z M10.894,42.242c-1.222,0.599-2.211,1.441-2.211,1.971v8.608c0,0.528,0.989,1.372,2.211,1.972V42.242z"/>
	</g>
	<g>
		<polyline fill="#FFFFFF" points="40.771,37.29 43.771,52.79 37.771,52.79 		"/>
		<polygon fill="#272D33" points="46.194,54.79 37.771,54.79 37.771,50.79 41.346,50.79 38.807,37.67 42.734,36.91 		"/>
	</g>
	<g>
		<rect x="28.271" y="43.29" fill="#272D33" width="5" height="4"/>
	</g>
	<g>
		<rect x="47.271" y="43.29" fill="#272D33" width="5" height="4"/>
	</g>
</g>
</svg>
