<?xml version="1.0" encoding="utf-8"?>
<!-- Generator: Adobe Illustrator 16.0.0, SVG Export Plug-In . SVG Version: 6.00 Build 0)  -->
<!DOCTYPE svg PUBLIC "-//W3C//DTD SVG 1.1//EN" "http://www.w3.org/Graphics/SVG/1.1/DTD/svg11.dtd">
<svg version="1.1" id="Capa_1" xmlns="http://www.w3.org/2000/svg" xmlns:xlink="http://www.w3.org/1999/xlink" x="0px" y="0px"
	 width="99.271px" height="100.069px" viewBox="0 0 99.271 100.069" enable-background="new 0 0 99.271 100.069"
	 xml:space="preserve">
<g>
	<g>
		<ellipse fill="#FFFFFF" cx="68.951" cy="34.176" rx="7.169" ry="6.106"/>
		<path fill="#272D33" d="M68.95,42.282c-5.056,0-9.169-3.637-9.169-8.106c0-4.471,4.113-8.107,9.169-8.107
			c5.057,0,9.17,3.637,9.17,8.107C78.12,38.646,74.007,42.282,68.95,42.282z M68.95,30.068c-2.85,0-5.169,1.842-5.169,4.107
			c0,2.264,2.319,4.106,5.169,4.106c2.851,0,5.17-1.843,5.17-4.106C74.12,31.91,71.801,30.068,68.95,30.068z"/>
	</g>
	<g>
		<path fill="#B6BDBE" d="M50.406,20.457c-16.055,1.449-30.411,7.396-41.091,16.24c-0.065,1.187-0.11,2.379-0.11,3.585
			c0,29.331,19.813,53.108,44.256,53.108c21.409,0,39.267-18.244,43.368-42.484c-2.024,0.341-4.091,0.529-6.193,0.529
			C72.777,51.436,57.4,38.735,50.406,20.457z"/>
		<path fill="#272D33" d="M53.461,95.391c-25.506,0-46.256-24.722-46.256-55.108c0-1.118,0.035-2.292,0.113-3.694l0.048-0.873
			l0.673-0.558c11.259-9.325,26.242-15.253,42.187-16.692l1.507-0.137l0.541,1.414c6.901,18.038,21.959,29.693,38.361,29.693
			c1.911,0,3.884-0.168,5.862-0.501l2.772-0.466l-0.469,2.771C94.473,76.822,75.404,95.391,53.461,95.391z M11.268,37.686
			c-0.043,0.951-0.063,1.792-0.063,2.597c0,28.181,18.955,51.108,42.256,51.108c19.222,0,36.061-15.882,40.88-38.137
			c-1.248,0.121-2.486,0.182-3.705,0.182c-17.633,0-33.789-12.052-41.531-30.84C34.831,24.15,21.48,29.473,11.268,37.686z"/>
	</g>
	<g>
		<path fill="#272D33" d="M88.157,65.119c-4.996,0-9.912-0.943-14.611-2.805l1.473-3.719c6.029,2.388,12.375,3.138,19.001,2.022
			l0.663,3.944C92.485,64.932,90.29,65.119,88.157,65.119z"/>
	</g>
	<g>
		<path fill="#3EA3BA" d="M10.797,100.069V81.293c0-4.367,3.54-7.907,7.907-7.907h41.013c4.367,0,7.906,3.54,7.906,7.907v18.776"/>
		<path fill="#272D33" d="M69.623,100.069h-4V81.293c0-3.258-2.649-5.907-5.906-5.907H18.704c-3.257,0-5.907,2.649-5.907,5.907
			v18.776h-4V81.293c0-5.463,4.444-9.907,9.907-9.907h41.013c5.462,0,9.906,4.444,9.906,9.907V100.069z"/>
	</g>
	<g>
		<path fill="#FFFFFF" d="M29.466,73.829V25.501c0-4.985,4.042-9.028,9.029-9.028l0,0c4.985,0,9.028,4.043,9.028,9.028v64.172
			C47.523,89.281,29.372,73.924,29.466,73.829z"/>
		<path fill="#272D33" d="M47.523,91.673c-0.673,0-1.268-0.332-1.631-0.841c-0.948-0.975-7.212-6.365-11.393-9.962
			c-6.998-6.022-6.998-6.022-7.033-6.965l-0.001-48.404c0-6.081,4.948-11.028,11.029-11.028c6.081,0,11.028,4.947,11.028,11.028
			v64.172C49.523,90.777,48.628,91.673,47.523,91.673z M31.466,72.959c1.05,0.926,3.377,2.929,5.644,4.879
			c3.903,3.359,6.579,5.662,8.414,7.276V25.501c0-3.875-3.153-7.028-7.028-7.028c-3.876,0-7.029,3.153-7.029,7.028V72.959z"/>
	</g>
	<g>
		<path fill="#FFFFFF" d="M39.563,2.1c-13.11,0-24.279,8.311-28.527,19.951c-3.254-1.352-6.854-0.439-8.36,2.262
			c-1.642,2.945-0.17,6.896,3.29,8.824c1.063,0.594,2.189,0.923,3.288,1.014c0.878,15.979,14.11,28.668,30.31,28.668
			c16.767,0,30.358-13.593,30.358-30.359C69.922,15.691,56.33,2.1,39.563,2.1z"/>
		<path fill="#272D33" d="M39.563,64.818c-16.64,0-30.479-12.602-32.181-28.97c-0.829-0.219-1.637-0.544-2.392-0.965
			c-2.087-1.163-3.67-2.967-4.458-5.079c-0.829-2.225-0.688-4.521,0.396-6.466c1.364-2.446,4.006-3.907,7.068-3.907
			c0.624,0,1.245,0.061,1.859,0.182C14.942,7.866,26.65,0.1,39.563,0.1c17.843,0,32.358,14.516,32.358,32.359
			C71.922,50.302,57.406,64.818,39.563,64.818z M7.997,23.432c-1.591,0-2.927,0.693-3.574,1.855
			c-0.504,0.904-0.555,2.012-0.141,3.121c0.456,1.222,1.399,2.281,2.657,2.982c0.774,0.432,1.631,0.697,2.48,0.768l1.736,0.145
			l0.095,1.738c0.826,15.016,13.262,26.777,28.313,26.777c15.637,0,28.358-12.723,28.358-28.359C67.922,16.821,55.2,4.1,39.563,4.1
			c-11.872,0-22.581,7.49-26.648,18.637l-0.716,1.963l-1.93-0.801C9.536,23.594,8.75,23.432,7.997,23.432z"/>
	</g>
	<g>
		<path fill="#B6BDBE" d="M11.208,21.61c3.484,2.917,7.406,3.094,9.857,3.094c12.942,0,21.242-10.352,25.61-21.759
			C44.393,2.398,42.014,2.1,39.563,2.1C26.62,2.1,15.576,10.203,11.208,21.61z"/>
		<path fill="#272D33" d="M21.065,26.704c-2.062,0-6.889,0-11.141-3.56L8.83,22.229l0.51-1.334C14.103,8.457,26.249,0.1,39.563,0.1
			c2.536,0,5.085,0.303,7.578,0.9l2.217,0.532l-0.815,2.129C40.866,23.711,28.032,26.704,21.065,26.704z M13.656,20.926
			c2.455,1.547,5.093,1.778,7.41,1.778c12.576,0,19.486-10.597,22.839-18.268C42.463,4.212,41.01,4.1,39.563,4.1
			C28.4,4.1,18.176,10.801,13.656,20.926z"/>
	</g>
	<g>
		<path fill="#B6BDBE" d="M69.35,26.586C66.776,13.463,55.751,3.376,42.173,2.219C44.746,15.342,55.772,25.429,69.35,26.586z"/>
		<path fill="#272D33" d="M71.822,28.805l-2.643-0.227C54.883,27.36,42.971,16.679,40.21,2.604L39.7,0l2.643,0.227
			C56.64,1.444,68.552,12.126,71.312,26.201L71.822,28.805z M44.825,4.598c3.057,10.044,11.551,17.661,21.872,19.609
			C63.642,14.163,55.146,6.546,44.825,4.598z"/>
	</g>
	<g>
		<path fill="#272D33" d="M25.528,37.818c-2.101,0-4.202-0.799-5.801-2.398l2.828-2.829c1.64,1.64,4.307,1.64,5.946,0.001
			l2.829,2.828C29.729,37.02,27.629,37.818,25.528,37.818z"/>
	</g>
	<g>
		<path fill="#272D33" d="M50.665,37.818c-2.101,0-4.202-0.799-5.801-2.398l2.828-2.829c1.639,1.64,4.307,1.64,5.946,0l2.828,2.829
			C54.867,37.02,52.767,37.818,50.665,37.818z"/>
	</g>
	<g>
		<rect x="36.944" y="28.775" fill="#272D33" width="4" height="13.101"/>
	</g>
</g>
</svg>
