<?xml version="1.0" encoding="utf-8"?>
<!-- Generator: Adobe Illustrator 16.0.0, SVG Export Plug-In . SVG Version: 6.00 Build 0)  -->
<!DOCTYPE svg PUBLIC "-//W3C//DTD SVG 1.1//EN" "http://www.w3.org/Graphics/SVG/1.1/DTD/svg11.dtd">
<svg version="1.1" id="Capa_1" xmlns="http://www.w3.org/2000/svg" xmlns:xlink="http://www.w3.org/1999/xlink" x="0px" y="0px"
	 width="81.332px" height="97.733px" viewBox="0 0 81.332 97.733" enable-background="new 0 0 81.332 97.733" xml:space="preserve">
<g>
	<g>
		<path fill="#FFFFFF" d="M10.017,32.232v11.334c0,1.841,1.492,3.333,3.333,3.333s3.333-1.492,3.333-3.333V32.232H10.017z"/>
		<path fill="#272D33" d="M13.35,48.899c-2.941,0-5.333-2.393-5.333-5.333V30.232h10.666v13.334
			C18.683,46.507,16.29,48.899,13.35,48.899z M12.017,34.232v9.334c0,0.734,0.598,1.333,1.333,1.333
			c0.735,0,1.333-0.599,1.333-1.333v-9.334H12.017z"/>
	</g>
	<g>
		<path fill="#FFFFFF" d="M65.35,32.232v11.334c0,1.841,1.492,3.333,3.333,3.333s3.333-1.492,3.333-3.333V32.232H65.35z"/>
		<path fill="#272D33" d="M68.683,48.899c-2.941,0-5.333-2.393-5.333-5.333V30.232h10.666v13.334
			C74.016,46.507,71.623,48.899,68.683,48.899z M67.35,34.232v9.334c0,0.734,0.598,1.333,1.333,1.333
			c0.734,0,1.333-0.599,1.333-1.333v-9.334H67.35z"/>
	</g>
	<g>
		<path fill="#3EA3BA" d="M2.123,98.732V87.206c0-5.917,5.42-10.714,12.105-10.714h53.124c6.686,0,12.103,4.797,12.103,10.714
			v11.526"/>
		<path fill="#272D33" d="M81.455,98.732h-4V87.206c0-4.805-4.532-8.714-10.103-8.714H14.229c-5.572,0-10.105,3.909-10.105,8.714
			v11.526h-4V87.206c0-7.011,6.327-12.714,14.105-12.714h53.124c7.775,0,14.103,5.703,14.103,12.714V98.732z"/>
	</g>
	<g>
		<polygon fill="#FFFFFF" points="57.959,84.979 57.959,76.492 23.619,76.492 23.619,84.979 40.789,94.893 		"/>
		<path fill="#272D33" d="M40.789,97.201l-19.17-11.066V74.492h38.34v11.643L40.789,97.201z M25.619,83.824l15.17,8.759l15.17-8.759
			v-5.332h-30.34V83.824z"/>
	</g>
	<g>
		<polygon fill="#FFFFFF" points="50.959,80.938 40.789,86.81 30.619,80.938 30.619,58.732 40.789,58.732 50.959,58.732 		"/>
		<path fill="#272D33" d="M40.789,89.119l-12.17-7.026v-25.36h24.34v25.36L40.789,89.119z M32.619,79.783l8.17,4.717l8.17-4.717
			V60.732h-16.34V79.783z"/>
	</g>
	<g>
		<path fill="#FFFFFF" d="M64.931,17.193c0-7.803-6.325-14.127-14.128-14.127h-20.25c-7.803,0-14.128,6.324-14.128,14.127
			l-0.043,39.711L29.77,72.299h21.815l13.388-15.395L64.931,17.193z"/>
		<path fill="#272D33" d="M52.496,74.299H28.858L14.381,57.65l0.044-40.459c0-8.891,7.235-16.125,16.128-16.125h20.25
			c8.893,0,16.128,7.234,16.128,16.127l0.043,40.457L52.496,74.299z M30.681,70.299h19.992l12.299-14.143l-0.041-38.961
			c0-6.689-5.441-12.129-12.128-12.129h-20.25c-6.688,0-12.128,5.439-12.128,12.127l-0.042,38.963L30.681,70.299z"/>
	</g>
	<g>
		<path fill="#3EA3BA" d="M40.632,46.566c-9.261,0-17.301,5.498-21.358,13.567l10.579,12.165h21.816l10.413-11.975
			C58.056,52.152,49.964,46.566,40.632,46.566z"/>
		<path fill="#272D33" d="M52.58,74.299H28.941L16.884,60.434l0.603-1.198c4.55-9.048,13.419-14.669,23.146-14.669
			c9.816,0,18.724,5.699,23.244,14.874l0.587,1.192L52.58,74.299z M30.764,70.299h19.993l8.918-10.254
			c-3.995-7.114-11.181-11.479-19.043-11.479c-7.782,0-14.928,4.295-18.943,11.297L30.764,70.299z"/>
	</g>
	<g>
		<path fill="#FFFFFF" d="M34.88,56.662c-0.022,0.199-0.036,0.402-0.036,0.607c0,3.021,2.448,5.469,5.469,5.469h0.729
			c3.021,0,5.47-2.448,5.47-5.469c0-0.205-0.014-0.408-0.035-0.607H34.88z"/>
		<path fill="#272D33" d="M41.041,64.738h-0.729c-4.119,0-7.469-3.351-7.469-7.469c0-0.281,0.018-0.559,0.048-0.832l0.2-1.775
			h15.179l0.192,1.785c0.029,0.27,0.047,0.544,0.047,0.822C48.511,61.388,45.159,64.738,41.041,64.738z M37.135,58.662
			c0.538,1.221,1.759,2.076,3.177,2.076h0.729c1.418,0,2.64-0.855,3.178-2.076H37.135z"/>
	</g>
	<g>
		<g>
			<rect x="25.511" y="30.566" fill="#272D33" width="4.334" height="4"/>
		</g>
		<g>
			<rect x="51.511" y="30.566" fill="#272D33" width="4.334" height="4"/>
		</g>
	</g>
	<g>
		<polygon fill="#272D33" points="47.345,42.566 34.011,42.566 34.011,28.232 25.017,28.232 25.017,24.232 38.011,24.232 
			38.011,38.566 43.345,38.566 43.345,26.232 47.345,26.232 		"/>
	</g>
</g>
</svg>
