<?xml version="1.0" encoding="utf-8"?>
<!-- Generator: Adobe Illustrator 16.0.0, SVG Export Plug-In . SVG Version: 6.00 Build 0)  -->
<!DOCTYPE svg PUBLIC "-//W3C//DTD SVG 1.1//EN" "http://www.w3.org/Graphics/SVG/1.1/DTD/svg11.dtd">
<svg version="1.1" id="Capa_1" xmlns="http://www.w3.org/2000/svg" xmlns:xlink="http://www.w3.org/1999/xlink" x="0px" y="0px"
	 width="72.378px" height="104.744px" viewBox="0 0 72.378 104.744" enable-background="new 0 0 72.378 104.744"
	 xml:space="preserve">
<g>
	<g>
		<path fill="#B6BDBE" d="M70.913,102.034V90.259c0-5.203-4.764-9.421-10.643-9.421H45.127c0.021-0.235,0.036-0.473,0.036-0.715
			v-20.5c0-4.418-3.582-8-8-8h-0.5c-4.419,0-8,3.582-8,8v20.5c0,0.242,0.015,0.479,0.036,0.715H13.558
			c-5.879,0-10.645,4.218-10.645,9.421v11.775"/>
		<path fill="#272D33" d="M72.913,102.034h-4V90.259c0-4.092-3.878-7.421-8.643-7.421H42.941l0.193-2.177
			c0.016-0.177,0.028-0.356,0.028-0.538v-20.5c0-3.309-2.692-6-6-6h-0.5c-3.309,0-6,2.691-6,6v20.5c0,0.182,0.012,0.361,0.028,0.538
			l0.194,2.177H13.558c-4.767,0-8.645,3.329-8.645,7.421v11.775h-4V90.259c0-6.298,5.672-11.421,12.645-11.421h13.105V59.623
			c0-5.514,4.486-10,10-10h0.5c5.514,0,10,4.486,10,10v19.215h13.107c6.971,0,12.643,5.123,12.643,11.421V102.034z"/>
	</g>
	<g>
		<path fill="#B6BDBE" d="M48.246,84.623c0,1.105-0.896,2-2,2H27.58c-1.104,0-2-0.895-2-2v-9c0-1.104,0.896-2,2-2h18.666
			c1.104,0,2,0.896,2,2V84.623z"/>
		<path fill="#272D33" d="M46.246,88.623H27.58c-2.206,0-4-1.794-4-4v-9c0-2.205,1.794-4,4-4h18.666c2.206,0,4,1.795,4,4v9
			C50.246,86.829,48.452,88.623,46.246,88.623z M27.58,75.623v9h18.669l-0.003-9H27.58z"/>
	</g>
	<g>
		<path fill="#FFFFFF" d="M60.399,50.612c0,13.134-10.646,23.781-23.781,23.781l0,0c-13.135,0-23.781-10.647-23.781-23.781V37.588
			c0-13.133,10.646-23.779,23.781-23.779l0,0c13.135,0,23.781,10.646,23.781,23.779V50.612z"/>
		<path fill="#272D33" d="M36.618,76.394c-14.216,0-25.781-11.565-25.781-25.781V37.588c0-14.215,11.565-25.779,25.781-25.779
			s25.781,11.564,25.781,25.779v13.024C62.399,64.828,50.834,76.394,36.618,76.394z M36.618,15.809
			c-12.01,0-21.781,9.771-21.781,21.779v13.024c0,12.011,9.771,21.781,21.781,21.781c12.011,0,21.781-9.771,21.781-21.781V37.588
			C58.399,25.579,48.629,15.809,36.618,15.809z"/>
	</g>
	<g>
		<path fill="#FFFFFF" d="M57.37,48.213c0-2.594,2.102-4.695,4.695-4.695h0.393c2.592,0,4.694,2.102,4.694,4.695v5.702
			c0,2.594-2.103,4.696-4.694,4.696h-0.393c-1.919,0-3.568-1.15-4.297-2.8"/>
		<path fill="#272D33" d="M62.458,60.611h-0.393c-2.65,0-5.055-1.566-6.126-3.992l3.658-1.615c0.432,0.977,1.4,1.607,2.468,1.607
			h0.393c1.485,0,2.694-1.209,2.694-2.696v-5.702c0-1.486-1.209-2.695-2.694-2.695h-0.393c-1.486,0-2.695,1.209-2.695,2.695h-4
			c0-3.691,3.003-6.695,6.695-6.695h0.393c3.691,0,6.694,3.004,6.694,6.695v5.702C69.152,57.607,66.149,60.611,62.458,60.611z"/>
	</g>
	<g>
		<path fill="#FFFFFF" d="M15.818,43.518c-2.525,0.263-6.644,2.374-6.644,4.97v5.999c0,2.598,4.118,4.708,6.644,4.971V43.518z"/>
		<path fill="#272D33" d="M17.818,61.676l-2.207-0.229c-3.448-0.358-8.437-3.044-8.437-6.96v-5.999c0-3.915,4.988-6.601,8.437-6.96
			l2.207-0.229V61.676z M13.818,46.155c-1.45,0.671-2.644,1.69-2.644,2.332v5.999c0,0.688,1.225,1.674,2.644,2.326V46.155z"/>
	</g>
	<g>
		<rect x="24.374" y="42.29" fill="#272D33" width="4.334" height="4"/>
	</g>
	<g>
		<rect x="42.374" y="42.29" fill="#272D33" width="4.334" height="4"/>
	</g>
	<g>
		<path fill="#FFFFFF" d="M31.5,63.068c1.142,1.98,3.009,3.276,5.124,3.276c2.116,0,3.983-1.296,5.125-3.276"/>
		<path fill="#272D33" d="M36.624,68.345c-2.75,0-5.313-1.599-6.856-4.278l3.466-1.997c0.833,1.446,2.069,2.275,3.391,2.275
			c1.322,0,2.559-0.829,3.393-2.276l3.466,1.998C41.938,66.746,39.374,68.345,36.624,68.345z"/>
	</g>
	<g>
		<path fill="#3EA3BA" d="M59.371,19.79h-2.764c0.925-1.607,1.21-3.261,0.645-4.718c-1.397-3.605-7.4-4.638-13.408-2.309
			c-0.677,0.264-1.32,0.561-1.936,0.881c0.378-1.281,0.389-2.546-0.061-3.705C40.188,5.661,33.063,4.435,25.932,7.2
			c-7.041,2.731-11.443,8.329-9.955,12.59h-2.105c-2.762,0-5,2.238-5,5v20.864c0.085,0.212,0.164,0.426,0.254,0.636h6.715V28.088
			c0-0.255,0.029-0.504,0.038-0.757c6.277,1.321,13.314,2.063,20.743,2.063s14.466-0.741,20.743-2.063
			c0.009,0.253,0.038,0.502,0.038,0.757V46.29h6.714c0.09-0.21,0.17-0.425,0.255-0.638V24.79
			C64.371,22.028,62.133,19.79,59.371,19.79z"/>
		<path fill="#272D33" d="M65.436,48.29H55.402V29.754c-5.952,1.089-12.258,1.64-18.781,1.64c-6.525,0-12.831-0.551-18.781-1.639
			V48.29H7.807l-0.52-1.212c-0.067-0.156-0.129-0.315-0.191-0.475L6.871,46.04V24.79c0-3.802,3.047-6.905,6.827-6.998
			c0.184-4.723,4.716-9.82,11.51-12.457c2.723-1.055,5.559-1.613,8.203-1.613c5.116,0,8.967,2.055,10.301,5.495
			c0.167,0.43,0.29,0.877,0.368,1.336c2.031-0.678,4.109-1.034,6.065-1.034c4.444,0,7.799,1.806,8.972,4.83
			c0.416,1.072,0.521,2.243,0.326,3.442c3.826,0.038,6.928,3.163,6.928,6.999v21.247l-0.222,0.559
			c-0.063,0.16-0.126,0.322-0.194,0.48L65.436,48.29z M59.402,44.29h2.969v-19.5c0-1.654-1.346-3-3-3H53.15l1.724-2.997
			c0.456-0.795,0.917-1.959,0.514-2.998c-0.545-1.404-2.554-2.276-5.242-2.276c-1.776,0-3.705,0.384-5.578,1.11
			c-0.575,0.223-1.144,0.481-1.735,0.79l-4.17,2.171l1.328-4.51c0.266-0.904,0.264-1.719-0.008-2.417
			c-0.703-1.814-3.222-2.941-6.571-2.941c-2.154,0-4.49,0.464-6.756,1.343c-6.483,2.516-9.779,7.235-8.791,10.066l0.929,2.659
			h-4.922c-1.654,0-3,1.346-3,3v19.5h2.969V28.088c0-0.197,0.012-0.393,0.025-0.588l0.014-0.242l0.087-2.373l2.324,0.489
			c6.367,1.34,13.207,2.02,20.331,2.02c7.121,0,13.962-0.68,20.331-2.02l2.323-0.489l0.102,2.615
			c0.014,0.195,0.025,0.391,0.025,0.588V44.29z"/>
	</g>
	<g>
		<path fill="#FFFFFF" d="M32.999,39.037v14.959c0,0.967,0.783,1.75,1.75,1.75h3.208c0.967,0,1.75-0.783,1.75-1.75v-0.875"/>
		<path fill="#272D33" d="M37.957,57.746h-3.208c-2.067,0-3.75-1.682-3.75-3.75V39.037h4v14.709h2.708v-0.625h4v0.875
			C41.707,56.064,40.025,57.746,37.957,57.746z"/>
	</g>
	<g>
		<rect x="30.707" y="78.29" fill="#272D33" width="4" height="7.667"/>
	</g>
</g>
</svg>
