<?xml version="1.0" encoding="utf-8"?>
<!-- Generator: Adobe Illustrator 16.0.0, SVG Export Plug-In . SVG Version: 6.00 Build 0)  -->
<!DOCTYPE svg PUBLIC "-//W3C//DTD SVG 1.1//EN" "http://www.w3.org/Graphics/SVG/1.1/DTD/svg11.dtd">
<svg version="1.1" id="Capa_1" xmlns="http://www.w3.org/2000/svg" xmlns:xlink="http://www.w3.org/1999/xlink" x="0px" y="0px"
	 width="81.332px" height="99.334px" viewBox="0 0 81.332 99.334" enable-background="new 0 0 81.332 99.334" xml:space="preserve">
<g>
	<g>
		<path fill="#FFFFFF" d="M1.679,99.034V85.643c0-5.917,5.42-10.713,12.105-10.713h53.123c6.686,0,12.104,4.796,12.104,10.713
			v13.392"/>
		<path fill="#272D33" d="M81.011,99.034h-4V85.643c0-4.805-4.532-8.713-10.104-8.713H13.784c-5.572,0-10.105,3.908-10.105,8.713
			v13.392h-4V85.643c0-7.01,6.327-12.713,14.105-12.713h53.123c7.777,0,14.104,5.703,14.104,12.713V99.034z"/>
	</g>
	<g>
		<path fill="#272D33" d="M40.345,97.665l-1.473-1.605c-4.771-5.198-8.701-12.292-11.365-20.514l-0.848-2.616h27.372l-0.849,2.616
			c-2.664,8.222-6.594,15.315-11.364,20.514L40.345,97.665z M32.22,76.93c2.116,5.712,4.885,10.727,8.125,14.717
			c3.24-3.99,6.01-9.005,8.125-14.717H32.22z"/>
	</g>
	<g>
		<path fill="#FFFFFF" d="M15.955,32.002h-1.667c-2.209,0-4,1.791-4,4v9.334c0,2.209,1.791,4,4,4h1.667V32.002z"/>
		<path fill="#272D33" d="M17.955,51.336h-3.667c-3.309,0-6-2.691-6-6v-9.334c0-3.309,2.691-6,6-6h3.667V51.336z M13.955,34.03
			c-0.945,0.159-1.667,0.983-1.667,1.972v9.334c0,0.988,0.722,1.813,1.667,1.972V34.03z"/>
	</g>
	<g>
		<path fill="#FFFFFF" d="M63.788,49.336h1.667c2.209,0,4-1.791,4-4v-9.334c0-2.209-1.791-4-4-4h-1.667V49.336z"/>
		<path fill="#272D33" d="M65.455,51.336h-3.667V30.002h3.667c3.308,0,6,2.691,6,6v9.334C71.455,48.645,68.763,51.336,65.455,51.336
			z M65.788,34.03v13.277c0.944-0.159,1.667-0.983,1.667-1.972v-9.334C67.455,35.014,66.732,34.189,65.788,34.03z"/>
	</g>
	<g>
		<path fill="#FFFFFF" d="M63.667,59.865c0,10.293-8.345,18.637-18.638,18.637H34.972c-10.294,0-18.638-8.344-18.638-18.637V22.59
			c0-10.293,8.344-18.638,18.638-18.638h10.058c10.293,0,18.638,8.345,18.638,18.638V59.865z"/>
		<path fill="#272D33" d="M45.029,80.502H34.972c-11.38,0-20.638-9.258-20.638-20.637V22.59c0-11.38,9.258-20.638,20.638-20.638
			h10.058c11.38,0,20.638,9.258,20.638,20.638v37.275C65.667,71.244,56.409,80.502,45.029,80.502z M34.972,5.952
			c-9.174,0-16.638,7.464-16.638,16.638v37.275c0,9.174,7.463,16.637,16.638,16.637h10.058c9.174,0,16.638-7.463,16.638-16.637
			V22.59c0-9.174-7.464-16.638-16.638-16.638H34.972z"/>
	</g>
	<g>
		<path fill="#3EA3BA" d="M57.489,9.758c0.105,0.926,0.178,1.866,0.178,2.832v37.275c0,4.881-1.412,9.309-3.704,12.631
			c-2.183-4.189-7.604-7.16-13.963-7.16s-11.779,2.972-13.963,7.16c-2.292-3.322-3.703-7.75-3.703-12.631V12.59
			c0-0.966,0.071-1.906,0.177-2.832c-3.784,3.411-6.177,8.336-6.177,13.832v37.275c0,10.293,8.344,18.637,18.638,18.637h10.058
			c10.293,0,18.638-8.344,18.638-18.637V23.59C63.667,18.094,61.273,13.17,57.489,9.758z"/>
		<path fill="#272D33" d="M45.029,81.502H34.972c-11.38,0-20.638-9.258-20.638-20.637V23.59c0-5.817,2.492-11.4,6.838-15.317
			l3.925-3.538l-0.599,5.25c-0.112,0.984-0.164,1.812-0.164,2.605v37.275c0,3.193,0.661,6.275,1.894,8.936
			c3.138-3.394,8.207-5.465,13.772-5.465s10.634,2.071,13.772,5.465c1.232-2.66,1.895-5.742,1.895-8.936V12.59
			c0-0.793-0.053-1.621-0.165-2.605l-0.599-5.25l3.926,3.539c4.346,3.916,6.838,9.5,6.838,15.316v37.275
			C65.667,72.244,56.409,81.502,45.029,81.502z M20.334,15.715c-1.298,2.401-2,5.105-2,7.875v37.275
			c0,9.174,7.463,16.637,16.638,16.637h10.058c9.174,0,16.638-7.463,16.638-16.637V23.59c0-2.77-0.702-5.474-2-7.875v34.15
			c0,5.084-1.441,9.974-4.059,13.767l-1.885,2.733l-1.535-2.945c-1.896-3.639-6.795-6.084-12.188-6.084s-10.292,2.445-12.189,6.085
			l-1.535,2.944l-1.885-2.732c-2.617-3.793-4.057-8.684-4.057-13.768V15.715z"/>
	</g>
	<g>
		<path fill="#FFFFFF" d="M34.25,63.15v0.426c0,2.352,1.907,4.26,4.26,4.26h2.981c2.353,0,4.259-1.908,4.259-4.26V63.15H34.25z"/>
		<path fill="#272D33" d="M41.491,69.836H38.51c-3.452,0-6.26-2.809-6.26-6.26V61.15h15.5v2.426
			C47.75,67.027,44.942,69.836,41.491,69.836z M36.89,65.15c0.411,0.422,0.985,0.686,1.62,0.686h2.981
			c0.635,0,1.208-0.264,1.619-0.686H36.89z"/>
	</g>
	<g>
		<path fill="#FFFFFF" d="M44.035,45.545c0,2.174-1.764,3.938-3.938,3.938l0,0c-2.174,0-3.938-1.764-3.938-3.938V30.77"/>
		<path fill="#272D33" d="M40.098,51.482c-3.273,0-5.938-2.664-5.938-5.938V30.77h4v14.775c0,1.068,0.869,1.938,1.938,1.938
			s1.938-0.869,1.938-1.938h4C46.035,48.818,43.372,51.482,40.098,51.482z"/>
	</g>
	<g>
		<path fill="#272D33" d="M48.096,38.238c-2.101,0-4.202-0.799-5.801-2.398l2.828-2.828c1.64,1.639,4.307,1.639,5.946,0l2.828,2.828
			C52.298,37.439,50.196,38.238,48.096,38.238z"/>
	</g>
	<g>
		<path fill="#272D33" d="M31.098,38.238c-2.101,0-4.202-0.799-5.801-2.398l2.828-2.828c1.639,1.639,4.307,1.639,5.946,0
			l2.828,2.828C35.3,37.439,33.199,38.238,31.098,38.238z"/>
	</g>
</g>
</svg>
