<?xml version="1.0" encoding="utf-8"?>
<!-- Generator: Adobe Illustrator 16.0.0, SVG Export Plug-In . SVG Version: 6.00 Build 0)  -->
<!DOCTYPE svg PUBLIC "-//W3C//DTD SVG 1.1//EN" "http://www.w3.org/Graphics/SVG/1.1/DTD/svg11.dtd">
<svg version="1.1" id="Capa_1" xmlns="http://www.w3.org/2000/svg" xmlns:xlink="http://www.w3.org/1999/xlink" x="0px" y="0px"
	 width="72px" height="100.244px" viewBox="0 0 72 100.244" enable-background="new 0 0 72 100.244" xml:space="preserve">
<g>
	<g>
		<path fill="#FFFFFF" d="M2,100.244V88.469c0-5.203,4.766-9.421,10.645-9.421h46.713c5.879,0,10.643,4.218,10.643,9.421v11.775"/>
		<path fill="#272D33" d="M72,100.244h-4V88.469c0-4.092-3.878-7.421-8.643-7.421H12.645C7.878,81.048,4,84.377,4,88.469v11.775H0
			V88.469c0-6.298,5.672-11.421,12.645-11.421h46.713C66.328,77.048,72,82.171,72,88.469V100.244z"/>
	</g>
	<path fill="#B6BDBE" d="M35.75,99h0.5c7.72,0,14-6.28,14-14v-3.938h-28.5V85C21.75,92.72,28.03,99,35.75,99z"/>
	<g>
		<path fill="#FFFFFF" d="M44.25,85c0,4.419-3.582,8-8,8h-0.5c-4.419,0-8-3.581-8-8V64.5c0-4.419,3.581-8,8-8h0.5
			c4.418,0,8,3.581,8,8V85z"/>
		<path fill="#272D33" d="M36.25,95h-0.5c-5.514,0-10-4.485-10-10V64.5c0-5.515,4.486-10,10-10h0.5c5.514,0,10,4.485,10,10V85
			C46.25,90.515,41.764,95,36.25,95z M35.75,58.5c-3.309,0-6,2.691-6,6V85c0,3.309,2.691,6,6,6h0.5c3.308,0,6-2.691,6-6V64.5
			c0-3.309-2.692-6-6-6H35.75z"/>
	</g>
	<g>
		<path fill="#FFFFFF" d="M60.28,48.822c0,13.134-10.646,23.781-23.78,23.781l0,0c-13.135,0-23.781-10.647-23.781-23.781V29.798
			c0-13.133,10.646-23.779,23.781-23.779l0,0c13.135,0,23.78,10.646,23.78,23.779V48.822z"/>
		<path fill="#272D33" d="M36.5,74.604c-14.216,0-25.781-11.565-25.781-25.781V29.798c0-14.215,11.565-25.779,25.781-25.779
			s25.78,11.564,25.78,25.779v19.024C62.28,63.038,50.716,74.604,36.5,74.604z M36.5,8.019c-12.011,0-21.781,9.771-21.781,21.779
			v19.024c0,12.011,9.771,21.781,21.781,21.781c12.01,0,21.78-9.771,21.78-21.781V29.798C58.28,17.789,48.51,8.019,36.5,8.019z"/>
	</g>
	<g>
		<path fill="#3EA3BA" d="M15.719,44.5V26.298c0-0.255,0.028-0.504,0.038-0.757c6.276,1.321,13.314,2.063,20.743,2.063
			c7.428,0,14.465-0.741,20.742-2.063c0.01,0.253,0.038,0.502,0.038,0.757V44.5h6.715c1.446-3.378,2.255-7.093,2.255-11V30
			c0-15.464-12.536-28-28-28h-3.5c-15.464,0-28,12.536-28,28v3.5c0,3.907,0.808,7.622,2.254,11H15.719z"/>
		<path fill="#272D33" d="M65.314,46.5H55.28V27.964c-5.952,1.089-12.257,1.64-18.78,1.64c-6.526,0-12.832-0.551-18.781-1.639V46.5
			H7.685l-0.519-1.212C5.563,41.545,4.75,37.579,4.75,33.5V30c0-16.542,13.458-30,30-30h3.5c16.542,0,30,13.458,30,30v3.5
			c0,4.078-0.813,8.044-2.416,11.787L65.314,46.5z M59.28,42.5h3.361c1.067-2.882,1.608-5.903,1.608-9V30c0-14.337-11.664-26-26-26
			h-3.5c-14.337,0-26,11.663-26,26v3.5c0,3.097,0.541,6.118,1.608,9h3.36V26.298c0-0.197,0.012-0.393,0.025-0.588l0.014-0.242
			l0.087-2.373l2.324,0.489c6.367,1.34,13.207,2.02,20.332,2.02c7.121,0,13.962-0.68,20.331-2.02l2.323-0.489l0.101,2.615
			c0.014,0.195,0.025,0.391,0.025,0.588V42.5z"/>
	</g>
	<g>
		<path fill="#FFFFFF" d="M57.251,46.423c0-2.594,2.102-4.695,4.695-4.695h0.393c2.592,0,4.695,2.102,4.695,4.695v5.702
			c0,2.594-2.104,4.696-4.695,4.696h-0.393c-1.919,0-3.567-1.15-4.296-2.8"/>
		<path fill="#272D33" d="M62.339,58.821h-0.393c-2.65,0-5.055-1.566-6.125-3.992l3.658-1.615c0.432,0.977,1.4,1.607,2.467,1.607
			h0.393c1.486,0,2.695-1.209,2.695-2.696v-5.702c0-1.486-1.209-2.695-2.695-2.695h-0.393c-1.486,0-2.695,1.209-2.695,2.695h-4
			c0-3.691,3.004-6.695,6.695-6.695h0.393c3.691,0,6.695,3.004,6.695,6.695v5.702C69.034,55.817,66.03,58.821,62.339,58.821z"/>
	</g>
	<g>
		<path fill="#FFFFFF" d="M15.7,41.728c-2.525,0.263-6.644,2.374-6.644,4.97v5.999c0,2.598,4.118,4.708,6.644,4.971V41.728z"/>
		<path fill="#272D33" d="M17.7,59.886l-2.207-0.229c-3.449-0.358-8.437-3.044-8.437-6.96v-5.999c0-3.915,4.988-6.601,8.437-6.96
			l2.207-0.229V59.886z M13.7,44.365c-1.45,0.671-2.644,1.69-2.644,2.332v5.999c0,0.688,1.225,1.674,2.644,2.326V44.365z"/>
	</g>
	<g>
		<path fill="#FFFFFF" d="M39.756,50c0,2.347-1.903,4.25-4.25,4.25c-2.348,0-4.25-1.903-4.25-4.25"/>
		<path fill="#272D33" d="M35.506,56.25c-3.446,0-6.25-2.804-6.25-6.25h4c0,1.241,1.009,2.25,2.25,2.25c1.24,0,2.25-1.009,2.25-2.25
			h4C41.756,53.446,38.952,56.25,35.506,56.25z"/>
	</g>
	<g>
		<rect x="24.256" y="40.5" fill="#272D33" width="4.333" height="4"/>
	</g>
	<g>
		<rect x="42.256" y="40.5" fill="#272D33" width="4.333" height="4"/>
	</g>
	<g>
		<path fill="#FFFFFF" d="M25.858,60.167c2.372,3.324,6.252,5.499,10.647,5.499s8.275-2.175,10.648-5.499H25.858z"/>
		<path fill="#272D33" d="M36.506,67.666c-4.855,0-9.444-2.369-12.276-6.338l-2.255-3.161h29.063l-2.256,3.161
			C45.95,65.297,41.36,67.666,36.506,67.666z M30.959,62.167c1.667,0.967,3.577,1.499,5.546,1.499s3.88-0.532,5.546-1.499H30.959z"
			/>
	</g>
</g>
</svg>
