<?xml version="1.0" encoding="utf-8"?>
<!-- Generator: Adobe Illustrator 16.0.0, SVG Export Plug-In . SVG Version: 6.00 Build 0)  -->
<!DOCTYPE svg PUBLIC "-//W3C//DTD SVG 1.1//EN" "http://www.w3.org/Graphics/SVG/1.1/DTD/svg11.dtd">
<svg version="1.1" id="Capa_1" xmlns="http://www.w3.org/2000/svg" xmlns:xlink="http://www.w3.org/1999/xlink" x="0px" y="0px"
	 width="81.332px" height="97.733px" viewBox="0 0 81.332 97.733" enable-background="new 0 0 81.332 97.733" xml:space="preserve">
<g>
	<g>
		<path fill="#B6BDBE" d="M2.012,99.732V86.342c0-5.918,5.42-10.714,12.104-10.714H67.24c6.686,0,12.104,4.796,12.104,10.714v13.391
			"/>
		<path fill="#272D33" d="M81.344,99.732h-4V86.342c0-4.805-4.532-8.714-10.104-8.714H14.116c-5.572,0-10.104,3.909-10.104,8.714
			v13.391h-4V86.342c0-7.011,6.327-12.714,14.104-12.714H67.24c7.776,0,14.104,5.703,14.104,12.714V99.732z"/>
	</g>
	<g>
		<path fill="#FFFFFF" d="M40.678,88.9c-5.282,0-9.565-4.282-9.565-9.564V28.135c0-5.282,4.283-9.566,9.565-9.566l0,0
			c5.282,0,9.564,4.284,9.564,9.566v51.201C50.242,84.618,45.96,88.9,40.678,88.9L40.678,88.9z"/>
		<path fill="#272D33" d="M40.678,90.9c-6.377,0-11.565-5.188-11.565-11.564V28.135c0-6.377,5.188-11.566,11.565-11.566
			s11.564,5.189,11.564,11.566v51.201C52.242,85.713,47.055,90.9,40.678,90.9z M40.678,20.568c-4.171,0-7.565,3.395-7.565,7.566
			v51.201c0,4.171,3.394,7.564,7.565,7.564c4.171,0,7.564-3.394,7.564-7.564V28.135C48.242,23.963,44.849,20.568,40.678,20.568z"/>
	</g>
	<g>
		<path fill="#FFFFFF" d="M15.238,30.701h-1.667c-2.209,0-4,1.791-4,4v9.333c0,2.209,1.791,4,4,4h1.667V30.701z"/>
		<path fill="#272D33" d="M17.238,50.034h-3.667c-3.308,0-6-2.691-6-6v-9.333c0-3.309,2.692-6,6-6h3.667V50.034z M13.238,32.729
			c-0.944,0.159-1.667,0.983-1.667,1.973v9.333c0,0.989,0.723,1.813,1.667,1.972V32.729z"/>
	</g>
	<g>
		<path fill="#FFFFFF" d="M63.071,48.034h1.667c2.209,0,4-1.791,4-4v-9.333c0-2.209-1.791-4-4-4h-1.667V48.034z"/>
		<path fill="#272D33" d="M64.738,50.034h-3.667V28.701h3.667c3.309,0,6,2.691,6,6v9.333C70.738,47.343,68.047,50.034,64.738,50.034
			z M65.071,32.729v13.277c0.945-0.158,1.667-0.982,1.667-1.972v-9.333C66.738,33.712,66.017,32.888,65.071,32.729z"/>
	</g>
	<g>
		<path fill="#FFFFFF" d="M62.95,57.563c0,10.293-8.345,18.638-18.638,18.638H34.255c-10.294,0-18.638-8.345-18.638-18.638V20.288
			c0-10.293,8.344-18.638,18.638-18.638h10.058c10.293,0,18.638,8.345,18.638,18.638V57.563z"/>
		<path fill="#272D33" d="M44.313,78.201H34.255c-11.379,0-20.638-9.258-20.638-20.638V20.288c0-11.38,9.258-20.638,20.638-20.638
			h10.058c11.38,0,20.638,9.258,20.638,20.638v37.275C64.95,68.943,55.692,78.201,44.313,78.201z M34.255,3.65
			c-9.174,0-16.638,7.464-16.638,16.638v37.275c0,9.174,7.464,16.638,16.638,16.638h10.058c9.175,0,16.638-7.464,16.638-16.638
			V20.288c0-9.174-7.463-16.638-16.638-16.638H34.255z"/>
	</g>
	<g>
		<path fill="#FFFFFF" d="M52.617,74.23c6.12-3.057,10.333-9.361,10.333-16.667v-7.942c-3.06,1.527-5.643,3.868-7.461,6.739
			c-1.818,2.872-2.872,6.274-2.872,9.928V74.23z"/>
		<path fill="#272D33" d="M50.617,77.464V66.288c0-3.907,1.101-7.71,3.183-10.997c2.021-3.191,4.876-5.771,8.258-7.459l2.893-1.445
			v11.177c0,7.86-4.383,14.933-11.439,18.456L50.617,77.464z M60.95,53.247c-1.479,1.167-2.756,2.579-3.771,4.184
			c-1.676,2.646-2.562,5.709-2.562,8.857v4.323c3.971-3.115,6.333-7.869,6.333-13.048V53.247z"/>
	</g>
	<g>
		<path fill="#FFFFFF" d="M25.95,74.23c-6.12-3.056-10.333-9.361-10.333-16.666v-7.943c6.12,3.057,10.333,9.362,10.333,16.668"/>
		<path fill="#272D33" d="M25.057,76.02c-7.056-3.523-11.44-10.595-11.44-18.455V46.388l2.894,1.444
			c7.056,3.523,11.439,10.596,11.439,18.457h-4c0-5.179-2.362-9.934-6.333-13.049v4.324c0,6.334,3.536,12.035,9.227,14.877
			L25.057,76.02z"/>
	</g>
	<g>
		<path fill="#FFFFFF" d="M33.534,60.85v0.426c0,2.352,1.907,4.259,4.26,4.259h2.981c2.352,0,4.259-1.907,4.259-4.259V60.85"/>
		<path fill="#272D33" d="M40.775,67.534h-2.981c-3.452,0-6.26-2.808-6.26-6.259V60.85h4v0.426c0,1.245,1.014,2.259,2.26,2.259
			h2.981c1.245,0,2.259-1.014,2.259-2.259V60.85h4v0.426C47.034,64.727,44.226,67.534,40.775,67.534z"/>
	</g>
	<g>
		<path fill="#FFFFFF" d="M44.319,50.243c0,2.175-1.764,3.938-3.938,3.938l0,0c-2.175,0-3.938-1.763-3.938-3.938V35.468"/>
		<path fill="#272D33" d="M40.382,56.181c-3.274,0-5.938-2.663-5.938-5.938V35.468h4v14.775c0,1.068,0.869,1.938,1.938,1.938
			s1.938-0.869,1.938-1.938h4C46.319,53.518,43.655,56.181,40.382,56.181z"/>
	</g>
	<g>
		<path fill="#3EA3BA" d="M44.278,1.65H34.221c-10.294,0-18.638,8.345-18.638,18.638v1.791c2.58-3.709,6.966-6.532,12.23-7.757
			c1.541,2.828,6.076,4.879,11.436,4.879s9.895-2.051,11.436-4.879c5.264,1.225,9.651,4.049,12.231,7.758v-1.792
			C62.916,9.995,54.571,1.65,44.278,1.65z"/>
		<path fill="#272D33" d="M64.916,28.457l-3.642-5.235c-2.098-3.015-5.605-5.38-9.752-6.61c-2.398,2.828-7.004,4.59-12.273,4.59
			c-5.269,0-9.875-1.762-12.272-4.59c-4.147,1.23-7.655,3.596-9.752,6.609l-3.642,5.236v-8.169c0-11.38,9.258-20.638,20.638-20.638
			h10.058c11.379,0,20.638,9.258,20.638,20.638V28.457z M28.842,12.029l0.728,1.336c1.039,1.906,4.697,3.836,9.679,3.836
			s8.641-1.93,9.68-3.836l0.728-1.336l1.481,0.346c3.536,0.822,6.771,2.35,9.401,4.385C58.917,9.275,52.242,3.65,44.278,3.65H34.221
			c-7.964,0-14.639,5.625-16.261,13.109c2.63-2.037,5.866-3.563,9.401-4.385L28.842,12.029z"/>
	</g>
	<g>
		
			<rect x="43.666" y="31.45" transform="matrix(0.9916 0.1293 -0.1293 0.9916 4.7419 -6.1168)" fill="#272D33" width="11.597" height="4"/>
	</g>
	<g>
		
			<rect x="25.964" y="27.652" transform="matrix(0.1293 0.9916 -0.9916 0.1293 57.5204 1.3972)" fill="#272D33" width="4" height="11.597"/>
	</g>
	<g>
		<rect x="36.928" y="89.201" fill="#B6BDBE" width="7.5" height="9.5"/>
		<path fill="#272D33" d="M46.428,100.701h-11.5v-13.5h11.5V100.701z M38.928,96.701h3.5v-5.5h-3.5V96.701z"/>
	</g>
</g>
</svg>
