<?xml version="1.0" encoding="utf-8"?>
<!-- Generator: Adobe Illustrator 16.0.0, SVG Export Plug-In . SVG Version: 6.00 Build 0)  -->
<!DOCTYPE svg PUBLIC "-//W3C//DTD SVG 1.1//EN" "http://www.w3.org/Graphics/SVG/1.1/DTD/svg11.dtd">
<svg version="1.1" id="Capa_1" xmlns="http://www.w3.org/2000/svg" xmlns:xlink="http://www.w3.org/1999/xlink" x="0px" y="0px"
	 width="77.666px" height="96.875px" viewBox="0 0 77.666 96.875" enable-background="new 0 0 77.666 96.875" xml:space="preserve">
<g>
	<g>
		<path fill="#3EA3BA" d="M10.049,98.156v-12c0-4.419,3.581-8,8-8h44c4.418,0,8,3.581,8,8v12"/>
		<path fill="#272D33" d="M72.049,98.156h-4v-12c0-3.309-2.692-6-6-6h-44c-3.309,0-6,2.691-6,6v12h-4v-12c0-5.515,4.486-10,10-10h44
			c5.514,0,10,4.485,10,10V98.156z"/>
	</g>
	<g>
		<path fill="#FFFFFF" d="M24.549,98.156V87.056c0-4.087,1.851-7.399,4.133-7.399h22.733c2.283,0,4.134,3.313,4.134,7.399v11.101"/>
		<path fill="#272D33" d="M57.549,98.156h-4V87.056c0-3.297-1.401-5.399-2.134-5.399H28.682c-0.732,0-2.133,2.103-2.133,5.399
			v11.101h-4V87.056c0-5.358,2.636-9.399,6.133-9.399h22.733c3.497,0,6.134,4.041,6.134,9.399V98.156z"/>
	</g>
	<g>
		<rect x="33.049" y="60.156" fill="#FFFFFF" width="14" height="26"/>
		<path fill="#272D33" d="M49.049,88.156h-18v-30h18V88.156z M35.049,84.156h10v-22h-10V84.156z"/>
	</g>
	<g>
		<ellipse fill="#3EA3BA" cx="18.715" cy="25.486" rx="16.667" ry="17.334"/>
		<path fill="#272D33" d="M18.715,44.82c-10.292,0-18.666-8.673-18.666-19.334c0-10.66,8.374-19.332,18.666-19.332
			c10.293,0,18.667,8.672,18.667,19.332C37.382,36.147,29.008,44.82,18.715,44.82z M18.715,10.154
			c-8.087,0-14.666,6.878-14.666,15.332c0,8.455,6.579,15.334,14.666,15.334c8.088,0,14.667-6.879,14.667-15.334
			C33.382,17.032,26.803,10.154,18.715,10.154z"/>
	</g>
	<g>
		<ellipse fill="#3EA3BA" cx="14.715" cy="44.395" rx="10.667" ry="11.093"/>
		<path fill="#272D33" d="M14.715,57.487c-6.984,0-12.666-5.874-12.666-13.093c0-7.221,5.682-13.094,12.666-13.094
			c6.985,0,12.667,5.873,12.667,13.094C27.382,51.613,21.7,57.487,14.715,57.487z M14.715,35.301c-4.778,0-8.666,4.079-8.666,9.094
			c0,5.014,3.888,9.093,8.666,9.093c4.779,0,8.667-4.079,8.667-9.093C23.382,39.38,19.494,35.301,14.715,35.301z"/>
	</g>
	<g>
		<ellipse fill="#FFFFFF" cx="16.715" cy="35.728" rx="10.667" ry="11.093"/>
		<path fill="#272D33" d="M16.715,48.82c-6.984,0-12.666-5.873-12.666-13.093S9.73,22.635,16.715,22.635
			c6.985,0,12.667,5.873,12.667,13.093S23.7,48.82,16.715,48.82z M16.715,26.635c-4.778,0-8.666,4.078-8.666,9.093
			s3.888,9.093,8.666,9.093c4.779,0,8.667-4.078,8.667-9.093S21.494,26.635,16.715,26.635z"/>
	</g>
	<g>
		<ellipse fill="#3EA3BA" cx="58.715" cy="44.395" rx="10.667" ry="11.093"/>
		<path fill="#272D33" d="M58.715,57.487c-6.984,0-12.666-5.874-12.666-13.093c0-7.221,5.682-13.094,12.666-13.094
			c6.985,0,12.667,5.873,12.667,13.094C71.382,51.613,65.7,57.487,58.715,57.487z M58.715,35.301c-4.778,0-8.666,4.079-8.666,9.094
			c0,5.014,3.888,9.093,8.666,9.093c4.779,0,8.667-4.079,8.667-9.093C67.382,39.38,63.494,35.301,58.715,35.301z"/>
	</g>
	<g>
		<path fill="#FFFFFF" d="M59.987,46.06c0,13.134-10.646,23.781-23.781,23.781l0,0c-13.133,0-23.78-10.647-23.78-23.781V27.035
			c0-13.133,10.647-23.779,23.78-23.779l0,0c13.135,0,23.781,10.646,23.781,23.779V46.06z"/>
		<path fill="#272D33" d="M36.206,71.841c-14.215,0-25.78-11.565-25.78-25.781V27.035c0-14.215,11.565-25.779,25.78-25.779
			c14.216,0,25.781,11.564,25.781,25.779V46.06C61.987,60.275,50.422,71.841,36.206,71.841z M36.206,5.256
			c-12.009,0-21.78,9.77-21.78,21.779V46.06c0,12.011,9.771,21.781,21.78,21.781c12.011,0,21.781-9.771,21.781-21.781V27.035
			C57.987,15.025,48.217,5.256,36.206,5.256z"/>
	</g>
	<g>
		<path fill="#3EA3BA" d="M57.699,9.629L74.641,26.57l-3.065,3.064c-9.373,9.373-24.567,9.372-33.94,0L16.457,8.457
			C28.254-2.086,46.372-1.697,57.699,9.629z"/>
		<path fill="#272D33" d="M54.605,38.664c-6.944,0-13.474-2.704-18.385-7.615L13.547,8.375l1.577-1.409
			C20.994,1.721,28.57-1.168,36.46-1.168c8.557,0,16.602,3.332,22.653,9.383L77.469,26.57l-4.479,4.479
			C68.079,35.96,61.55,38.664,54.605,38.664z M19.424,8.596l19.625,19.625c4.155,4.155,9.68,6.443,15.556,6.443
			s11.4-2.288,15.556-6.443l1.65-1.65L56.284,11.043C50.989,5.748,43.948,2.832,36.46,2.832C30.267,2.832,24.294,4.865,19.424,8.596
			z"/>
	</g>
	<g>
		<path fill="#272D33" d="M33.557,37.329h-4c0-2.118-1.723-3.841-3.841-3.841c-2.118,0-3.841,1.723-3.841,3.841h-4
			c0-4.323,3.517-7.841,7.841-7.841C30.039,29.488,33.557,33.006,33.557,37.329z"/>
	</g>
	<g>
		<rect x="31.049" y="52.154" fill="#272D33" width="9" height="4"/>
	</g>
	<g>
		<rect x="34.549" y="90.488" fill="#272D33" width="11" height="4"/>
	</g>
	<g>
		<rect x="38.049" y="91.653" fill="#272D33" width="4" height="5.835"/>
	</g>
</g>
</svg>
