<?xml version="1.0" encoding="utf-8"?>
<!-- Generator: Adobe Illustrator 16.0.0, SVG Export Plug-In . SVG Version: 6.00 Build 0)  -->
<!DOCTYPE svg PUBLIC "-//W3C//DTD SVG 1.1//EN" "http://www.w3.org/Graphics/SVG/1.1/DTD/svg11.dtd">
<svg version="1.1" id="Capa_1" xmlns="http://www.w3.org/2000/svg" xmlns:xlink="http://www.w3.org/1999/xlink" x="0px" y="0px"
	 width="77.666px" height="96.875px" viewBox="0 0 77.666 96.875" enable-background="new 0 0 77.666 96.875" xml:space="preserve">
<g>
	<g>
		<path fill="#FFFFFF" d="M0.012,97.156V83.764c0-5.916,5.42-10.713,12.105-10.713h53.124c6.686,0,12.103,4.797,12.103,10.713
			v13.393"/>
		<path fill="#272D33" d="M79.344,97.156h-4V83.764c0-4.805-4.532-8.713-10.103-8.713H12.117c-5.572,0-10.105,3.908-10.105,8.713
			v13.393h-4V83.764c0-7.01,6.328-12.713,14.105-12.713h53.124c7.775,0,14.103,5.703,14.103,12.713V97.156z"/>
	</g>
	<g>
		<polygon fill="#FFFFFF" points="48.61,73.162 38.44,79.033 28.271,73.162 28.271,50.957 38.44,50.957 48.61,50.957 		"/>
		<path fill="#272D33" d="M38.44,81.344l-12.17-7.027V48.957h24.34v25.359L38.44,81.344z M30.271,72.008l8.17,4.717l8.17-4.717
			V52.957h-16.34V72.008z"/>
	</g>
	<polygon fill="#3EA3BA" points="26.524,89.189 38.398,81.342 27.462,75.027 	"/>
	<polygon fill="#3EA3BA" points="50.335,89.189 38.462,81.342 49.397,75.027 	"/>
	<g>
		<path fill="#FFFFFF" d="M67.969,43.488c0,2.594-2.104,4.696-4.695,4.696h-0.393c-2.594,0-4.695-2.103-4.695-4.696V34.88
			c0-2.593,2.102-4.695,4.695-4.695h0.393c2.592,0,4.695,2.103,4.695,4.695V43.488z"/>
		<path fill="#272D33" d="M63.273,50.185h-0.393c-3.691,0-6.695-3.004-6.695-6.696V34.88c0-3.692,3.004-6.695,6.695-6.695h0.393
			c3.692,0,6.695,3.003,6.695,6.695v8.608C69.969,47.181,66.966,50.185,63.273,50.185z M62.881,32.185
			c-1.485,0-2.695,1.209-2.695,2.695v8.608c0,1.486,1.21,2.696,2.695,2.696h0.393c1.486,0,2.695-1.21,2.695-2.696V34.88
			c0-1.486-1.209-2.695-2.695-2.695H62.881z"/>
	</g>
	<g>
		<path fill="#FFFFFF" d="M62.459,44.279c0,13.135-10.646,23.781-23.781,23.781l0,0c-13.135,0-23.781-10.646-23.781-23.781V25.256
			c0-13.134,10.646-23.78,23.781-23.78l0,0c13.135,0,23.781,10.646,23.781,23.78V44.279z"/>
		<path fill="#272D33" d="M38.678,70.061c-14.216,0-25.781-11.565-25.781-25.781V25.256c0-14.215,11.565-25.78,25.781-25.78
			s25.781,11.565,25.781,25.78v19.023C64.459,58.495,52.894,70.061,38.678,70.061z M38.678,3.476
			c-12.01,0-21.781,9.771-21.781,21.78v19.023c0,12.01,9.771,21.781,21.781,21.781c12.011,0,21.781-9.771,21.781-21.781V25.256
			C60.459,13.246,50.688,3.476,38.678,3.476z"/>
	</g>
	<g>
		<path fill="#3EA3BA" d="M30.186,0.185c-3.848,0-7.23,1.98-9.197,4.975h-3.777c-4.707,0-8.525,3.816-8.525,8.525v41h6v-28.5
			c0-3.313,2.688-6,6-6h3.5h29.5h5.5c6.076,0,11-4.925,11-11v-9H30.186z"/>
		<path fill="#272D33" d="M16.686,56.685h-10v-43c0-5.804,4.722-10.525,10.525-10.525h2.754c2.458-3.134,6.204-4.975,10.22-4.975h42
			v11c0,7.169-5.831,13-13,13h-38.5c-2.205,0-4,1.794-4,4V56.685z M10.686,52.685h2v-26.5c0-4.411,3.589-8,8-8h38.5
			c4.963,0,9-4.038,9-9v-7h-38c-3.037,0-5.851,1.522-7.525,4.073l-0.593,0.901h-4.856c-3.598,0-6.525,2.927-6.525,6.525V52.685z"/>
	</g>
	<g>
		<path fill="#FFFFFF" d="M14.896,30.233c-2.361,0.245-6.211,2.22-6.211,4.646v8.608c0,2.428,3.85,4.401,6.211,4.646V30.233z"/>
		<path fill="#272D33" d="M16.896,50.354l-2.207-0.229c-3.272-0.341-8.004-2.9-8.004-6.637V34.88c0-3.737,4.732-6.296,8.004-6.636
			l2.207-0.229V50.354z M12.896,32.908c-1.221,0.6-2.211,1.443-2.211,1.972v8.608c0,0.529,0.99,1.373,2.211,1.972V32.908z"/>
	</g>
	<g>
		<path fill="#FFFFFF" d="M33.649,53.348c1.142,1.98,3.009,3.276,5.124,3.276c2.116,0,3.983-1.296,5.125-3.276"/>
		<path fill="#272D33" d="M38.773,58.624c-2.75,0-5.313-1.599-6.856-4.278l3.466-1.997c0.833,1.446,2.069,2.275,3.391,2.275
			c1.322,0,2.559-0.829,3.393-2.276l3.466,1.998C44.087,57.025,41.523,58.624,38.773,58.624z"/>
	</g>
	<g>
		<path fill="#272D33" d="M25.282,45.957c-6.529,0-11.842-5.313-11.842-11.842v-5.816h23.684v5.816
			C37.124,40.645,31.812,45.957,25.282,45.957z M17.44,32.299v1.816c0,4.324,3.518,7.842,7.842,7.842
			c4.324,0,7.842-3.518,7.842-7.842v-1.816H17.44z"/>
	</g>
	<g>
		<path fill="#272D33" d="M52.599,45.957c-6.529,0-11.841-5.313-11.841-11.842v-5.816H64.44v5.816
			C64.44,40.645,59.128,45.957,52.599,45.957z M44.758,32.299v1.816c0,4.324,3.518,7.842,7.841,7.842
			c4.324,0,7.842-3.518,7.842-7.842v-1.816H44.758z"/>
	</g>
	<g>
		<rect x="25.106" y="33.624" fill="#272D33" width="4.334" height="4"/>
	</g>
	<g>
		<rect x="49.106" y="33.624" fill="#272D33" width="4.334" height="4"/>
	</g>
	<g>
		<rect x="35.106" y="28.299" fill="#272D33" width="9" height="4"/>
	</g>
</g>
</svg>
