<?xml version="1.0" encoding="utf-8"?>
<!-- Generator: Adobe Illustrator 16.0.0, SVG Export Plug-In . SVG Version: 6.00 Build 0)  -->
<!DOCTYPE svg PUBLIC "-//W3C//DTD SVG 1.1//EN" "http://www.w3.org/Graphics/SVG/1.1/DTD/svg11.dtd">
<svg version="1.1" id="Capa_1" xmlns="http://www.w3.org/2000/svg" xmlns:xlink="http://www.w3.org/1999/xlink" x="0px" y="0px"
	 width="77.666px" height="96.875px" viewBox="0 0 77.666 96.875" enable-background="new 0 0 77.666 96.875" xml:space="preserve">
<g>
	<g>
		<path fill="#3EA3BA" d="M69.782,42.701c0,9.389-7.611,17-17,17l0,0c-9.389,0-17-7.611-17-17v-5.667c0-9.389,7.611-17,17-17l0,0
			c9.389,0,17,7.611,17,17V42.701z"/>
		<path fill="#272D33" d="M52.782,61.701c-10.477,0-19-8.523-19-19v-5.667c0-10.477,8.523-19,19-19s19,8.523,19,19v5.667
			C71.782,53.178,63.259,61.701,52.782,61.701z M52.782,22.034c-8.271,0-15,6.729-15,15v5.667c0,8.271,6.729,15,15,15
			s15-6.729,15-15v-5.667C67.782,28.764,61.054,22.034,52.782,22.034z"/>
	</g>
	<g>
		<ellipse fill="#FFFFFF" cx="65.627" cy="37.367" rx="7.169" ry="6.107"/>
		<path fill="#272D33" d="M65.627,45.475c-5.056,0-9.169-3.637-9.169-8.107c0-4.47,4.113-8.106,9.169-8.106s9.169,3.637,9.169,8.106
			C74.796,41.838,70.683,45.475,65.627,45.475z M65.627,33.261c-2.851,0-5.169,1.843-5.169,4.106c0,2.266,2.318,4.107,5.169,4.107
			s5.169-1.842,5.169-4.107C70.796,35.104,68.478,33.261,65.627,33.261z"/>
	</g>
	<g>
		<path fill="#FFFFFF" d="M42.058,87.533c-5.063,0-9.168-4.104-9.168-9.168V29.291c0-5.063,4.105-9.169,9.168-9.169l0,0
			c5.063,0,9.168,4.105,9.168,9.169v49.074C51.226,83.43,47.12,87.533,42.058,87.533L42.058,87.533z"/>
		<path fill="#272D33" d="M42.058,89.533c-6.159,0-11.168-5.01-11.168-11.168V29.291c0-6.158,5.01-11.169,11.168-11.169
			c6.158,0,11.168,5.011,11.168,11.169v49.074C53.226,84.523,48.216,89.533,42.058,89.533z M42.058,22.122
			c-3.953,0-7.168,3.216-7.168,7.169v49.074c0,3.953,3.215,7.168,7.168,7.168c3.952,0,7.168-3.215,7.168-7.168V29.291
			C49.226,25.338,46.01,22.122,42.058,22.122z"/>
	</g>
	<g>
		<path fill="#FFFFFF" d="M64.722,34.607c0,13.133-10.646,23.781-23.781,23.781l0,0c-13.132,0-23.78-10.648-23.78-23.781V24.582
			c0-13.133,10.647-23.779,23.78-23.779l0,0c13.135,0,23.781,10.646,23.781,23.779V34.607z"/>
		<path fill="#272D33" d="M40.94,60.389c-14.215,0-25.78-11.566-25.78-25.781V24.582c0-14.215,11.565-25.779,25.78-25.779
			c14.216,0,25.781,11.564,25.781,25.779v10.025C66.722,48.822,55.156,60.389,40.94,60.389z M40.94,2.803
			c-12.009,0-21.78,9.771-21.78,21.779v10.025c0,12.01,9.771,21.781,21.78,21.781c12.011,0,21.781-9.771,21.781-21.781V24.582
			C62.722,12.573,52.951,2.803,40.94,2.803z"/>
	</g>
	<g>
		<path fill="#FFFFFF" d="M35.658,47.091c1.142,1.981,3.009,3.276,5.124,3.276c2.116,0,3.982-1.295,5.125-3.276"/>
		<path fill="#272D33" d="M40.782,52.367c-2.75,0-5.313-1.599-6.857-4.277l3.466-1.998c0.833,1.446,2.069,2.275,3.391,2.275
			s2.559-0.829,3.393-2.275l3.465,1.998C46.096,50.769,43.532,52.367,40.782,52.367z"/>
	</g>
	<g>
		<path fill="#B6BDBE" d="M13.183,98.156V79.379c0-4.366,3.54-7.906,7.907-7.906h41.013c4.367,0,7.906,3.54,7.906,7.906v18.777"/>
		<path fill="#272D33" d="M72.009,98.156h-4V79.379c0-3.257-2.649-5.906-5.906-5.906H21.09c-3.257,0-5.907,2.649-5.907,5.906v18.777
			h-4V79.379c0-5.463,4.444-9.906,9.907-9.906h41.013c5.463,0,9.906,4.443,9.906,9.906V98.156z"/>
	</g>
	<g>
		<path fill="#272D33" d="M53.052,35.904c-2.102,0-4.202-0.799-5.802-2.398l2.828-2.828c1.64,1.639,4.307,1.639,5.946,0l2.828,2.828
			C57.253,35.105,55.152,35.904,53.052,35.904z"/>
	</g>
	<g>
		<path fill="#3EA3BA" d="M11.449,29.742v30.959h4.333c13.255,0,24-17.745,24-31V-0.248C23.986,0.638,11.449,13.725,11.449,29.742z"
			/>
		<path fill="#272D33" d="M15.782,62.701H9.449V29.742c0-16.986,13.275-31.037,30.221-31.988l2.112-0.117v32.064
			C41.782,44.556,29.785,62.701,15.782,62.701z M13.449,58.701h2.333c11.642,0,22-16.217,22-29V1.946
			C23.977,3.766,13.449,15.59,13.449,29.742V58.701z"/>
	</g>
	<g>
		<path fill="#272D33" d="M6.809,62.701H2.782v-4h4.027c11.197,0,20.307-9.869,20.307-22h4
			C31.116,51.037,20.212,62.701,6.809,62.701z"/>
	</g>
	<g>
		<path fill="#3EA3BA" d="M42.114-0.248v2.214c1.893,15.044,13.492,27.06,28.334,29.575v-1.798
			C70.448,13.725,57.911,0.639,42.114-0.248z"/>
		<path fill="#272D33" d="M72.448,33.908l-2.334-0.396c-15.671-2.655-28-15.525-29.984-31.297l-0.016-0.249v-4.329l2.112,0.118
			c16.946,0.951,30.222,15.002,30.222,31.988V33.908z M44.129,1.949C45.88,15.083,55.698,25.916,68.44,29.08
			C68.118,15.229,57.711,3.747,44.129,1.949z"/>
	</g>
	<g>
		<path fill="#B6BDBE" d="M53.321,77.034c0,1.104-0.896,2-2,2H32.654c-1.104,0-2-0.896-2-2v-9c0-1.104,0.896-2,2-2h18.667
			c1.104,0,2,0.896,2,2V77.034z"/>
		<path fill="#272D33" d="M51.321,81.034H32.654c-2.206,0-4-1.794-4-4v-9c0-2.206,1.794-4,4-4h18.667c2.205,0,4,1.794,4,4v9
			C55.321,79.24,53.526,81.034,51.321,81.034z M32.654,68.034v9h18.669l-0.002-9H32.654z"/>
	</g>
	<g>
		<rect x="35.782" y="70.701" fill="#272D33" width="4" height="7.666"/>
	</g>
</g>
</svg>
