<?xml version="1.0" encoding="utf-8"?>
<!-- Generator: Adobe Illustrator 16.0.0, SVG Export Plug-In . SVG Version: 6.00 Build 0)  -->
<!DOCTYPE svg PUBLIC "-//W3C//DTD SVG 1.1//EN" "http://www.w3.org/Graphics/SVG/1.1/DTD/svg11.dtd">
<svg version="1.1" id="Capa_1" xmlns="http://www.w3.org/2000/svg" xmlns:xlink="http://www.w3.org/1999/xlink" x="0px" y="0px"
	 width="77.666px" height="96.875px" viewBox="0 0 77.666 96.875" enable-background="new 0 0 77.666 96.875" xml:space="preserve">
<g>
	<g>
		<path fill="#3EA3BA" d="M75.117,88.5c0.359-1.83,0.549-3.726,0.549-5.667V30c0-15.464-11.993-28-26.788-28H28.787
			C13.993,2,2,14.536,2,30v52.833c0,1.941,0.189,3.837,0.549,5.667H75.117z"/>
		<path fill="#272D33" d="M76.762,90.5H0.903l-0.317-1.615C0.197,86.902,0,84.865,0,82.833V30C0,13.458,12.914,0,28.787,0h20.091
			c15.874,0,28.788,13.458,28.788,30v52.833c0,2.036-0.197,4.071-0.587,6.052L76.762,90.5z M4.245,86.5h69.176
			c0.163-1.211,0.245-2.439,0.245-3.667V30c0-14.336-11.12-26-24.788-26H28.787C15.119,4,4,15.664,4,30v52.833
			C4,84.06,4.082,85.287,4.245,86.5z"/>
	</g>
	<g>
		<path fill="#FFFFFF" d="M9.499,96.833v-19c0-4.419,3.582-8,8-8h41.5c4.419,0,8,3.581,8,8v19"/>
		<path fill="#272D33" d="M68.999,96.833h-4v-19c0-3.309-2.691-6-6-6h-41.5c-3.308,0-6,2.691-6,6v19h-4v-19c0-5.515,4.486-10,10-10
			h41.5c5.514,0,10,4.485,10,10V96.833z"/>
	</g>
	<rect x="11.499" y="78.083" fill="#B6BDBE" width="53.5" height="6.75"/>
	<rect x="11.499" y="90.125" fill="#B6BDBE" width="53.5" height="6.75"/>
	<g>
		<path fill="#FFFFFF" d="M37.575,78.083c-4.694,0-8.5-3.806-8.5-8.5v-45.5c0-4.694,3.806-8.5,8.5-8.5l0,0
			c4.693,0,8.5,3.806,8.5,8.5v45.5C46.075,74.277,42.269,78.083,37.575,78.083L37.575,78.083z"/>
		<path fill="#272D33" d="M37.575,80.083c-5.79,0-10.5-4.71-10.5-10.5v-45.5c0-5.79,4.71-10.5,10.5-10.5c5.79,0,10.5,4.71,10.5,10.5
			v45.5C48.075,75.373,43.365,80.083,37.575,80.083z M37.575,17.583c-3.584,0-6.5,2.916-6.5,6.5v45.5c0,3.584,2.916,6.5,6.5,6.5
			s6.5-2.916,6.5-6.5v-45.5C44.075,20.499,41.159,17.583,37.575,17.583z"/>
	</g>
	<g>
		<path fill="#FFFFFF" d="M36.765,6.893c-4.331,10.276-14.497,17.49-26.349,17.49c-0.218,0-0.434-0.011-0.65-0.016
			C8.943,27.032,8.5,29.864,8.5,32.8c0,15.786,12.796,28.583,28.582,28.583S65.665,48.586,65.665,32.8S40.566,17.773,36.765,6.893z"
			/>
		<path fill="#272D33" d="M37.082,63.383C20.219,63.383,6.5,49.664,6.5,32.8c0-3.074,0.456-6.11,1.355-9.022l0.447-1.447
			l1.746,0.045c0.122,0.004,0.245,0.008,0.368,0.008c10.722,0,20.341-6.385,24.506-16.268l2.018-4.787l1.713,4.904
			c1.361,3.895,6.56,6.23,12.065,8.703c7.943,3.568,16.947,7.613,16.947,17.864C67.665,49.664,53.945,63.383,37.082,63.383z
			 M11.283,26.371C10.763,28.464,10.5,30.62,10.5,32.8c0,14.657,11.925,26.583,26.582,26.583S63.665,47.457,63.665,32.8
			c0-7.663-7.086-10.846-14.587-14.216c-4.599-2.064-9.315-4.184-12.154-7.518C31.654,20.232,21.997,26.07,11.283,26.371z"/>
	</g>
	<g>
		<rect x="26" y="28" fill="#272D33" width="3.334" height="4"/>
	</g>
	<g>
		<rect x="40.666" y="28" fill="#272D33" width="3.334" height="4"/>
	</g>
	<g>
		<path fill="#272D33" d="M37.082,51.168c-3.83,0-7.579-1.052-10.843-3.043l2.083-3.415c2.636,1.608,5.665,2.458,8.76,2.458
			c3.094,0,6.123-0.85,8.761-2.458l2.082,3.415C44.66,50.116,40.911,51.168,37.082,51.168z"/>
	</g>
</g>
</svg>
